<svg width="281" height="30" viewBox="0 0 281 30" fill="none" xmlns="http://www.w3.org/2000/svg">
<path fill-rule="evenodd" clip-rule="evenodd" d="M35.8069 20.7354L34.1418 28.7195H26.8638C27.417 26.0767 27.9716 23.2427 28.6003 20.5388C28.7286 19.952 28.8711 19.3516 29.0066 18.697C29.0066 18.2335 29.0736 17.7727 29.1491 17.3105C29.4243 14.0808 26.9993 13.4844 24.6498 14.4752C23.2512 15.0024 22.6282 15.9227 21.9453 17.114C21.3138 18.1698 21.1156 19.1551 20.829 20.4738L19.0256 28.7195H11.8132L16.0403 9.06749C18.2614 9.00108 20.4755 8.93467 22.7009 8.87368C22.4272 10.1233 22.0793 11.3119 21.8712 12.5642C24.5799 9.46459 28.0329 7.8843 32.0646 9.00108C36.0849 10.0569 36.9232 13.887 36.2888 17.5721C36.2104 18.697 36.0849 19.6823 35.8069 20.7354Z" fill="#98272A"/>
<path fill-rule="evenodd" clip-rule="evenodd" d="M167.343 0.172571H174.419L168.109 28.7819H161.596C161.869 27.7261 162.142 26.6757 162.496 25.6118C161.173 26.8045 160.069 27.7898 158.611 28.4539V24.1657C159.166 24.0383 159.727 23.835 160.206 23.5761C162.295 22.3211 163.113 20.0794 163.113 17.8364L162.979 16.7169C162.844 15.6665 162.362 14.7368 161.106 14.215C160.422 13.8151 159.444 13.8151 158.611 13.9507V8.87097C159.023 8.87097 159.371 9.00108 159.727 9.00108C161.735 9.46324 163.461 10.721 164.445 12.6292L167.343 0.172571ZM158.611 28.4539C158.129 28.7182 157.58 28.8483 156.943 28.9757C155.014 29.4365 153.891 29.5706 151.883 28.8483C149.531 28.0541 148.356 26.5402 147.454 24.4964C145.374 19.4885 147.653 12.3677 152.786 9.92675C154.448 9.13254 156.595 8.67716 158.611 8.87097V13.9507C158.059 14.0171 157.442 14.215 157.019 14.4752C155.838 15.203 155.073 16.2561 154.661 17.5057C154.182 18.7553 153.891 20.5388 154.314 21.8549C154.448 22.5162 154.732 22.9852 155.141 23.3742C156.11 24.1657 157.442 24.3622 158.611 24.1657" fill="#98272A"/>
<path fill-rule="evenodd" clip-rule="evenodd" d="M108.544 9.33719L107.089 13.5536C105.082 13.0304 103.618 12.7594 101.544 12.6306C100.914 12.6306 100.44 12.5642 99.9569 12.6916C98.4913 13.0304 97.8655 14.2773 98.9789 15.203C100.36 16.519 102.791 16.8443 104.523 17.9028C104.947 18.1711 105.427 18.5655 105.909 18.9599C107.285 21.0024 107.089 23.179 105.637 25.2933C103.343 28.5176 98.9789 28.8483 95.0256 28.584C92.8757 28.4471 91.0708 28.0554 88.9181 27.661L90.2439 22.912C92.8757 23.5761 94.5437 24.1711 97.0243 23.8987C98.1435 23.835 99.7473 23.8987 99.7473 22.4539C99.4636 21.3968 98.4272 20.7354 97.3109 20.2773C95.6543 19.5522 93.8494 19.0914 92.5335 17.8364C91.7594 16.7833 91.547 15.9918 91.547 14.6744C91.547 13.3557 91.9733 12.4368 92.5963 11.5762C96.139 6.76888 103.423 8.1513 108.544 9.33719Z" fill="#98272A"/>
<path fill-rule="evenodd" clip-rule="evenodd" d="M67.428 8.87097L74.7758 8.74086C74.2226 11.1818 73.6623 13.62 73.1078 16.1869C72.7713 17.8364 72.0756 19.952 72.5632 21.596C72.844 22.5162 73.1748 22.8483 74.0858 23.1099C75.1265 23.4433 76.4523 23.2427 77.2821 22.6491C79.7713 20.9387 80.4655 18.0993 81.0886 15.3304L82.614 8.74086H89.7594L85.3156 28.7195C83.2384 28.7819 81.1556 28.6531 79.0057 28.7195C79.2124 27.5932 79.4961 25.9452 79.7713 24.8243C79.0057 25.4871 78.3869 26.2149 77.5529 26.8045C76.5165 27.5932 75.2633 28.1232 73.9489 28.4539C72.4206 28.7819 70.3406 28.7819 68.8836 28.1869C67.2854 27.5932 66.1107 26.2149 65.4848 24.6929C64.6551 22.6491 64.9972 21.2694 65.3479 19.1551C65.8997 15.7302 66.6681 12.2349 67.428 8.87097Z" fill="#98272A"/>
<path fill-rule="evenodd" clip-rule="evenodd" d="M59.2418 0.172571H66.3173L59.9403 28.7819H53.4194C53.6974 27.7261 54.0439 26.6757 54.3162 25.6118C53.0773 26.8045 51.8997 27.7898 50.5097 28.4539V24.1657C51.0671 24.0383 51.6146 23.835 52.1078 23.5761C54.1094 22.3211 54.9506 20.0794 54.9506 17.8364L54.8707 16.7169C54.7367 15.6665 54.1821 14.7368 52.9461 14.215C52.2361 13.8151 51.2695 13.8151 50.5097 13.9507V8.87097C50.8575 8.87097 51.194 9.00108 51.6146 9.00108C53.5591 9.46324 55.2913 10.721 56.332 12.6292L59.2418 0.172571ZM50.5097 28.4539C49.9579 28.7182 49.3991 28.8483 48.836 28.9757C46.9071 29.4365 45.7337 29.5706 43.7207 28.8483C41.4212 28.0541 40.1737 26.5402 39.2684 24.4964C37.2525 19.4885 39.5635 12.3677 44.6175 9.92675C46.2798 9.13254 48.4967 8.67716 50.5097 8.87097V13.9507C49.8867 14.0171 49.3349 14.215 48.836 14.4752C47.7368 15.203 46.9071 16.2561 46.4836 17.5057C46.0046 18.7553 45.7337 20.5388 46.1358 21.8549C46.2798 22.5162 46.5563 22.9852 47.0325 23.3742C48.0148 24.1657 49.2537 24.3622 50.5097 24.1657" fill="#98272A"/>
<path fill-rule="evenodd" clip-rule="evenodd" d="M6.47562 0.172565H13.8933L7.72592 28.7182H0.238403" fill="#98272A"/>
<path fill-rule="evenodd" clip-rule="evenodd" d="M144.054 20.7354L142.313 28.7195H134.965C135.587 26.0767 136.21 23.2427 136.77 20.5388C136.908 19.952 137.054 19.3516 137.259 18.7661C137.259 18.2335 137.259 17.7727 137.32 17.3105C137.677 14.0808 135.094 13.4844 132.813 14.4752C131.495 15.0675 130.872 15.9227 130.182 17.114C129.494 18.1698 129.28 19.2242 129.073 20.4738L127.194 28.7195H120.124L124.217 9.06749C126.428 9.00108 128.664 9.00108 130.872 8.87368C130.599 10.1233 130.315 11.3119 130.034 12.5642C132.74 9.46459 136.21 7.8843 140.23 9.00108C144.258 10.0569 145.093 13.887 144.539 17.6412C144.396 18.697 144.258 19.6823 144.054 20.7354Z" fill="#98272A"/>
<path fill-rule="evenodd" clip-rule="evenodd" d="M114.229 0.172565H121.72L115.552 28.7182H108.053" fill="#98272A"/>
<path fill-rule="evenodd" clip-rule="evenodd" d="M253.049 20.9387L251.32 28.9757H243.969C244.524 26.2759 245.219 23.3742 245.781 20.7354C245.904 20.078 246.049 19.4885 246.193 18.8257C246.193 18.3636 246.252 17.9028 246.327 17.4338C246.611 14.2041 244.11 13.62 241.746 14.6012C240.429 15.1366 239.812 16.0568 239.058 17.2454C238.425 18.2999 238.219 19.292 237.943 20.6053L236.128 28.9147H228.918L233.087 9.13254C235.293 9.06613 237.589 8.99972 239.812 8.93467C239.531 10.1856 239.249 11.4434 238.976 12.6292C241.615 9.52965 245.219 7.94665 249.176 8.99972C253.33 10.1233 254.093 14.0171 253.539 17.709C253.464 18.8257 253.257 19.8138 253.049 20.9387Z" fill="#98272A"/>
<path fill-rule="evenodd" clip-rule="evenodd" d="M261.375 0.172571H268.653L264.906 17.1804L272.262 9.00107H280.44L271.85 18.0356L277.249 28.8483H269.481L264.705 18.3636L262.414 28.8483H255.274" fill="#98272A"/>
<path fill-rule="evenodd" clip-rule="evenodd" d="M227.608 18.3636C226.984 21.1989 226.361 23.9678 225.796 26.7394L225.525 28.9757H219.492L219.917 25.9452C218.876 26.9319 217.76 27.7898 216.585 28.3861V24.9572C216.648 24.8908 216.783 24.8908 216.919 24.8203C217.693 24.4286 218.25 24.1657 218.659 23.7658C219.633 22.7819 220.124 21.2707 220.526 20.013H219.492C218.601 20.013 217.55 19.952 216.585 20.013V16.7169C218.035 16.5868 219.702 16.6477 221.36 16.6477C221.36 14.9306 220.67 13.62 218.798 13.2283C217.968 13.0928 217.211 13.0928 216.585 13.0928V9.00108C221.093 8.47928 225.878 9.20166 227.541 13.0928C228.367 15.0675 227.892 16.3198 227.608 18.3636ZM216.585 28.3861C215.473 28.9147 214.22 29.2481 213.045 29.3728C210.337 29.6344 207.498 28.4539 206.32 26.0767C205.482 24.7566 205.7 23.3105 206.035 21.7966C206.392 20.3464 207.089 19.5522 208.877 18.3636C211.447 17.1804 213.956 16.7806 216.585 16.7169V20.013C215.542 20.0794 214.502 20.3464 213.809 20.8099C212.425 21.7966 211.876 23.6425 213.39 24.7566C214.293 25.3489 215.542 25.2933 216.585 24.9572V28.3861ZM216.585 13.0928C215.607 13.0928 214.772 13.1565 213.673 13.4235C212.425 13.6837 211.523 14.0808 210.337 14.6026L211.169 9.99317C212.843 9.60148 214.629 9.20166 216.585 9.00108" fill="#98272A"/>
<path fill-rule="evenodd" clip-rule="evenodd" d="M192.036 2.48067H195.848C199.184 2.48067 204.312 2.94148 205.27 6.63335C205.482 7.22697 205.549 7.81518 205.549 8.40745V8.47929C205.549 10.6464 204.449 12.5628 202.369 13.887C200.907 14.5402 199.668 14.8723 198.211 15.2667C201.948 15.859 204.385 18.2999 203.616 22.191C202.497 27.5933 197.165 28.4457 192.036 28.7819V24.0383C192.311 24.0383 192.596 23.9678 192.801 23.8987C197.095 23.2413 198.062 18.495 193.982 17.6412C193.347 17.5057 192.734 17.4338 192.036 17.5057V13.2839C192.868 13.2839 193.771 13.2175 194.528 13.0928C196.821 12.5628 199.865 10.3239 197.367 7.81518C196.327 6.76888 193.838 6.89628 192.036 7.02639V2.48067ZM185.103 2.48067H192.036V7.02639H191.41L189.95 13.2175C190.577 13.2175 191.348 13.2839 192.036 13.2839V17.5057C191.063 17.5057 190.023 17.6412 189.053 17.709L187.597 24.2958C188.839 24.2294 190.513 24.2294 192.036 24.0383V28.7819C191.615 28.8483 191.144 28.8483 190.71 28.9147H179.483" fill="#98272A"/>
</svg>
