<?xml version="1.0" encoding="utf-8"?>
<!-- Generator: Adobe Illustrator 28.1.0, SVG Export Plug-In . SVG Version: 6.00 Build 0)  -->
<svg version="1.1" id="Layer_1" xmlns="http://www.w3.org/2000/svg" xmlns:xlink="http://www.w3.org/1999/xlink" x="0px" y="0px"
	 viewBox="0 0 600 600" style="enable-background:new 0 0 600 600;" xml:space="preserve">
<style type="text/css">
	.st0{fill:url(#SVGID_1_);}
	.st1{fill:#051514;}
	.st2{fill:#FFFFFF;}
	.st3{fill:#FC7A69;}
	.st4{fill:none;stroke:#FFFFFF;stroke-width:0.2032;}
	.st5{fill:none;stroke:#FC7A69;stroke-width:0.2642;}
	.st6{fill-opacity:0.17;}
	.st7{fill:url(#SVGID_00000023961029140836916480000002462388549272697221_);}
	.st8{fill:none;stroke:#B3B3B3;stroke-width:0.3527;stroke-miterlimit:10;}
	.st9{fill:#FF585D;}
	.st10{opacity:0.8;}
	.st11{opacity:0;fill:#FFFFFF;}
	.st12{opacity:0.0196;fill:#FBFBFB;}
	.st13{opacity:0.0392;fill:#F7F7F7;}
	.st14{opacity:0.0588;fill:#F2F3F3;}
	.st15{opacity:0.0784;fill:#EEEEF0;}
	.st16{opacity:0.098;fill:#EAEAEC;}
	.st17{opacity:0.1176;fill:#E6E6E8;}
	.st18{opacity:0.1373;fill:#E2E2E4;}
	.st19{opacity:0.1569;fill:#DDDEE0;}
	.st20{opacity:0.1765;fill:#D9DADC;}
	.st21{opacity:0.1961;fill:#D5D5D8;}
	.st22{opacity:0.2157;fill:#D1D1D5;}
	.st23{opacity:0.2353;fill:#CDCDD1;}
	.st24{opacity:0.2549;fill:#C8C9CD;}
	.st25{opacity:0.2745;fill:#C4C5C9;}
	.st26{opacity:0.2941;fill:#C0C1C5;}
	.st27{opacity:0.3137;fill:#BCBCC1;}
	.st28{opacity:0.3333;fill:#B8B8BD;}
	.st29{opacity:0.3529;fill:#B3B4B9;}
	.st30{opacity:0.3725;fill:#AFB0B6;}
	.st31{opacity:0.3922;fill:#ABACB2;}
	.st32{opacity:0.4118;fill:#A7A8AE;}
	.st33{opacity:0.4314;fill:#A3A4AA;}
	.st34{opacity:0.451;fill:#9E9FA6;}
	.st35{opacity:0.4706;fill:#9A9BA2;}
	.st36{opacity:0.4902;fill:#96979E;}
	.st37{opacity:0.5098;fill:#92939B;}
	.st38{opacity:0.5294;fill:#8E8F97;}
	.st39{opacity:0.549;fill:#8A8B93;}
	.st40{opacity:0.5686;fill:#85868F;}
	.st41{opacity:0.5882;fill:#81828B;}
	.st42{opacity:0.6078;fill:#7D7E87;}
	.st43{opacity:0.6275;fill:#797A83;}
	.st44{opacity:0.6471;fill:#757680;}
	.st45{opacity:0.6667;fill:#70727C;}
	.st46{opacity:0.6863;fill:#6C6E78;}
	.st47{opacity:0.7059;fill:#686974;}
	.st48{opacity:0.7255;fill:#646570;}
	.st49{opacity:0.7451;fill:#60616C;}
	.st50{opacity:0.7647;fill:#5B5D68;}
	.st51{opacity:0.7843;fill:#575964;}
	.st52{opacity:0.8039;fill:#535561;}
	.st53{opacity:0.8235;fill:#4F505D;}
	.st54{opacity:0.8431;fill:#4B4C59;}
	.st55{opacity:0.8627;fill:#464855;}
	.st56{opacity:0.8824;fill:#424451;}
	.st57{opacity:0.902;fill:#3E404D;}
	.st58{opacity:0.9216;fill:#3A3C49;}
	.st59{opacity:0.9412;fill:#363746;}
	.st60{opacity:0.9608;fill:#313342;}
	.st61{opacity:0.9804;fill:#2D2F3E;}
	.st62{fill:#292B3A;}
	.st63{fill:url(#SVGID_00000051373030554064296750000014673415399340061829_);}
	.st64{fill:url(#SVGID_00000163772354139943591710000000634742443141234358_);}
	.st65{fill:url(#SVGID_00000163067333051493556430000013853569765444395421_);}
	.st66{fill:#FE7465;}
	.st67{opacity:0.25;fill:#FE4731;enable-background:new    ;}
	.st68{fill:#FD6F5C;}
	.st69{fill:#FF503E;}
	.st70{opacity:0.3;fill:#570048;enable-background:new    ;}
	.st71{opacity:0.51;fill:#DFDFA1;enable-background:new    ;}
	.st72{fill:#E53229;}
	.st73{opacity:0.16;fill:#DFDFA1;enable-background:new    ;}
	.st74{fill:#C64F59;}
	.st75{fill:#C6685F;}
	.st76{fill:#FF9B99;}
	.st77{opacity:0.25;fill:#FE7C6C;enable-background:new    ;}
	.st78{opacity:0.51;fill:#F1F1A8;enable-background:new    ;}
	.st79{opacity:0.3;fill:#690058;enable-background:new    ;}
	.st80{opacity:0.2;fill:#690058;enable-background:new    ;}
	.st81{fill:#D45B51;}
	.st82{fill:#DF8B83;}
	.st83{opacity:0.15;fill:#690058;enable-background:new    ;}
	.st84{fill:#EA6557;}
	.st85{fill:url(#SVGID_00000047038956150372360830000004088462038194945454_);}
	.st86{fill:url(#SVGID_00000124845614177536003840000007209649580665652618_);}
	.st87{fill:url(#SVGID_00000052813833448844457520000000486620302417187209_);}
	.st88{fill:url(#SVGID_00000156567739880656319600000005346286561912002186_);}
	.st89{fill:url(#SVGID_00000106825969284819414430000008688246604873213371_);}
	.st90{fill:url(#SVGID_00000029016014010991515720000010867572775428683145_);}
	.st91{fill:url(#SVGID_00000028284552634182890770000012792869026731855017_);}
	.st92{fill:url(#SVGID_00000092423358982836561790000008722616208578930360_);}
	.st93{opacity:0.3;fill:#FFFFFF;}
	.st94{opacity:0.5;}
	.st95{opacity:0.0196;fill:#FCFBFB;}
	.st96{opacity:0.0392;fill:#FAF7F7;}
	.st97{opacity:0.0588;fill:#F7F3F3;}
	.st98{opacity:0.0784;fill:#F4EFEF;}
	.st99{opacity:0.098;fill:#F2EBEB;}
	.st100{opacity:0.1176;fill:#EFE7E7;}
	.st101{opacity:0.1373;fill:#ECE3E3;}
	.st102{opacity:0.1569;fill:#EADFDF;}
	.st103{opacity:0.1765;fill:#E7DADA;}
	.st104{opacity:0.1961;fill:#E4D6D6;}
	.st105{opacity:0.2157;fill:#E2D2D2;}
	.st106{opacity:0.2353;fill:#DFCECE;}
	.st107{opacity:0.2549;fill:#DCCACA;}
	.st108{opacity:0.2745;fill:#DAC6C6;}
	.st109{opacity:0.2941;fill:#D7C2C2;}
	.st110{opacity:0.3137;fill:#D4BEBE;}
	.st111{opacity:0.3333;fill:#D2BABA;}
	.st112{opacity:0.3529;fill:#CFB6B6;}
	.st113{opacity:0.3725;fill:#CCB2B2;}
	.st114{opacity:0.3922;fill:#CAAEAE;}
	.st115{opacity:0.4118;fill:#C7AAAA;}
	.st116{opacity:0.4314;fill:#C4A6A6;}
	.st117{opacity:0.451;fill:#C2A2A2;}
	.st118{opacity:0.4706;fill:#BF9E9E;}
	.st119{opacity:0.4902;fill:#BC9A9A;}
	.st120{opacity:0.5098;fill:#BA9595;}
	.st121{opacity:0.5294;fill:#B79191;}
	.st122{opacity:0.549;fill:#B48D8D;}
	.st123{opacity:0.5686;fill:#B28989;}
	.st124{opacity:0.5882;fill:#AF8585;}
	.st125{opacity:0.6078;fill:#AC8181;}
	.st126{opacity:0.6275;fill:#AA7D7D;}
	.st127{opacity:0.6471;fill:#A77979;}
	.st128{opacity:0.6667;fill:#A47575;}
	.st129{opacity:0.6863;fill:#A27171;}
	.st130{opacity:0.7059;fill:#9F6D6D;}
	.st131{opacity:0.7255;fill:#9C6969;}
	.st132{opacity:0.7451;fill:#9A6565;}
	.st133{opacity:0.7647;fill:#976161;}
	.st134{opacity:0.7843;fill:#945D5D;}
	.st135{opacity:0.8039;fill:#925959;}
	.st136{opacity:0.8235;fill:#8F5555;}
	.st137{opacity:0.8431;fill:#8C5050;}
	.st138{opacity:0.8627;fill:#8A4C4C;}
	.st139{opacity:0.8824;fill:#874848;}
	.st140{opacity:0.902;fill:#844444;}
	.st141{opacity:0.9216;fill:#824040;}
	.st142{opacity:0.9412;fill:#7F3C3C;}
	.st143{opacity:0.9608;fill:#7C3838;}
	.st144{opacity:0.9804;fill:#7A3434;}
	.st145{fill:#773030;}
	.st146{fill:url(#SVGID_00000091017454179218794240000009622033323182535578_);}
	.st147{fill:url(#SVGID_00000019664828130510126160000000770720762736911245_);}
	.st148{fill:url(#SVGID_00000089561381468648598440000014785468032178453927_);}
	.st149{fill:#DDDDDF;}
	.st150{fill:#989199;}
	.st151{fill:url(#SVGID_00000086658971487414185530000016324834987195608718_);}
	.st152{fill:url(#SVGID_00000023967783931430318170000012970844634263202228_);}
	.st153{fill:url(#SVGID_00000170237650963073223070000014653932913491267499_);}
	.st154{fill:url(#SVGID_00000066501687733221519530000015352398008344211597_);}
	.st155{fill:url(#SVGID_00000073689483031375821790000000183775365329629361_);}
	.st156{fill:url(#SVGID_00000142890182284237921730000016918635041781172158_);}
	.st157{fill:url(#SVGID_00000081620624360176047240000005897363799236837789_);}
	.st158{fill:url(#SVGID_00000006670285600413342850000006711315320344806317_);}
	.st159{fill:url(#SVGID_00000121991210623886898020000010116060593210307733_);}
	.st160{fill:url(#SVGID_00000047765779637499702230000004515083929079393187_);}
	.st161{fill:url(#SVGID_00000032649503560439865840000011221771492357541296_);}
	.st162{fill:url(#SVGID_00000053520631150031603550000006976051906249594290_);}
	.st163{fill:url(#SVGID_00000090977944430400148920000005295294970306242693_);}
	.st164{fill:url(#SVGID_00000026162834861299153980000017472669494193468577_);}
	.st165{fill:url(#SVGID_00000068663878002206774880000013586250452622298554_);}
	.st166{fill:url(#SVGID_00000068664863548215962160000004108848872915345832_);}
	.st167{fill:url(#SVGID_00000073702373313518433130000002639136362811150471_);}
	.st168{fill:url(#SVGID_00000038393792633121210410000013441141206300428161_);}
	.st169{fill:url(#SVGID_00000131359220865719938900000014182698047245758081_);}
	.st170{fill:url(#SVGID_00000176021053195962837570000008619145796445209523_);}
	.st171{fill:url(#SVGID_00000038403911023113703690000001535832788243620485_);}
	.st172{fill:url(#SVGID_00000181064827618062104000000014795723680718712218_);}
	.st173{fill:url(#SVGID_00000108293614400676856520000007825130668201293740_);}
	.st174{fill:url(#SVGID_00000020382466664447033700000014867343787337896878_);}
	.st175{fill:url(#SVGID_00000087389332621207698040000004140610442368024248_);}
	.st176{fill:url(#SVGID_00000021108364722442014760000001763663676215493534_);}
	.st177{fill:url(#SVGID_00000155844005302119359610000013816110427356439430_);}
	.st178{fill:url(#SVGID_00000000221445319552091780000014568803156927526829_);}
	.st179{fill:url(#SVGID_00000163036268181584151700000017220918144355069344_);}
	.st180{fill:url(#SVGID_00000057143520745361543200000008806705810649159824_);}
	.st181{fill:url(#SVGID_00000077290708323015850510000005813783487640436153_);}
	.st182{fill:url(#SVGID_00000006702483078714501790000006140143457656377260_);}
	.st183{fill:url(#SVGID_00000115508649006606786580000012895335305864073618_);}
	.st184{fill:url(#SVGID_00000052086825832223464410000017644252928364592826_);}
	.st185{fill:url(#SVGID_00000181765389873647691060000007464487651022322053_);}
	.st186{fill:url(#SVGID_00000175295549862958563190000011491707373801650057_);}
	.st187{fill:url(#SVGID_00000020392833718487114490000000255030151466216087_);}
	.st188{fill:url(#SVGID_00000012445167060422179070000015749265868031257275_);}
	.st189{fill:url(#SVGID_00000007414040906300067350000007050682324976907137_);}
	.st190{fill:url(#SVGID_00000026132635216269863390000008353544322072397489_);}
	.st191{fill:url(#SVGID_00000131329801215795356350000015848985660280207263_);}
	.st192{fill:url(#SVGID_00000176731942428378932710000007277768781651938489_);}
	.st193{fill:url(#SVGID_00000183937604896539551220000006933327019398975935_);}
	.st194{fill:url(#SVGID_00000020394990222367233640000001726398298635022994_);}
	.st195{fill:url(#SVGID_00000039855606132061955920000002819644775368035757_);}
	.st196{fill:url(#SVGID_00000093177943086475754770000015273137802770129577_);}
	.st197{fill:url(#SVGID_00000113328318707863057870000014561856244117111710_);}
	.st198{fill:url(#SVGID_00000043453801857077172460000010481517267060253602_);}
	.st199{fill:url(#SVGID_00000176009942262637934960000013534145564031468710_);}
	.st200{fill:url(#SVGID_00000015351454963780800240000014250164832942395796_);}
	.st201{fill:url(#SVGID_00000176742278868852223230000012715036062182132903_);}
	.st202{fill:url(#SVGID_00000142161323048703348690000005696366106714973068_);}
	.st203{fill:url(#SVGID_00000139253198825651345960000017852012943663543463_);}
	.st204{fill:url(#SVGID_00000016756371236090557390000004173804222748816008_);}
	.st205{fill:url(#SVGID_00000101090529115810275600000007605648706640316558_);}
	.st206{fill:url(#SVGID_00000112613015629402032020000008932680071407389862_);}
	.st207{fill:url(#SVGID_00000150091298968226891940000012564214010766117526_);}
	.st208{fill:url(#SVGID_00000170964214910176246080000007207305615169345707_);}
	.st209{fill:url(#SVGID_00000005968735236305777050000013715208802902267790_);}
	.st210{fill:url(#SVGID_00000127010731831881955250000004594371786432439211_);}
	.st211{fill:url(#SVGID_00000158713384496908961850000003227209360440887704_);}
	.st212{fill:url(#SVGID_00000043423076554043464530000015152037958239102386_);}
	.st213{fill:url(#SVGID_00000003793728167986721780000006648346821814585260_);}
	.st214{fill:url(#SVGID_00000083780726190526760000000016237334155188306075_);}
	.st215{fill:url(#SVGID_00000168811956372496912680000017219814737176819100_);}
	.st216{fill:url(#SVGID_00000066476626883252772780000002516980224636989086_);}
	.st217{fill:url(#SVGID_00000106115251335247556050000009625463216975069883_);}
	.st218{fill:url(#SVGID_00000131345777277327395510000004933004787096480952_);}
	.st219{fill:url(#SVGID_00000168099835268762336600000001832852008491451554_);}
	.st220{fill:url(#SVGID_00000158718478522014453170000010671547187544998057_);}
	.st221{fill:url(#SVGID_00000062149859234719924930000009203540751141080192_);}
	.st222{fill:url(#SVGID_00000147911084380368436950000011926710718081295529_);}
	.st223{fill:url(#SVGID_00000168811078929159775230000006174819523669672379_);}
	.st224{fill:url(#SVGID_00000061443194870663188080000007002473131085454771_);}
	.st225{fill:url(#SVGID_00000030468151410321046560000000091697807735728777_);}
	.st226{fill:url(#SVGID_00000116218312572347438530000004307931407011586439_);}
	.st227{fill:url(#SVGID_00000049198846072831039940000003950600151292758688_);}
	.st228{fill:url(#SVGID_00000118357753691318266490000004641226767500635821_);}
	.st229{fill:url(#SVGID_00000015345569101768334690000006132934659117329803_);}
	.st230{fill:url(#SVGID_00000037693657952588154210000015941537228111571643_);}
	.st231{fill:url(#SVGID_00000162352881714401102460000007387695026053279159_);}
	.st232{fill:url(#SVGID_00000165952356047969448020000004609433413274143884_);}
	.st233{fill:url(#SVGID_00000104677525531237056340000006990886234369926567_);}
	.st234{fill:url(#SVGID_00000105416940702923203780000013860460718269945476_);}
	.st235{fill:url(#SVGID_00000165207542541539382260000000574741529390599599_);}
	.st236{fill:url(#SVGID_00000062178758408449113400000013609623165324940189_);}
	.st237{fill:url(#SVGID_00000109733113528970924230000016306006428549207731_);}
	.st238{fill:url(#SVGID_00000020400583642879738550000010904268989183901835_);}
	.st239{fill:url(#SVGID_00000108996533693720733320000007388590462715941530_);}
	.st240{fill:url(#SVGID_00000157302581426215556730000007004010945892866482_);}
	.st241{fill:url(#SVGID_00000062900977704183003950000015516111966152272574_);}
	.st242{fill:url(#SVGID_00000080928582243507335440000003566741446308506505_);}
	.st243{fill:url(#SVGID_00000044871795864129340800000015353416272283762080_);}
	.st244{fill:url(#SVGID_00000056419768526923345560000002241546498721216395_);}
	.st245{fill:url(#SVGID_00000107588197466493101970000007199776103834954118_);}
	.st246{fill:url(#SVGID_00000033368409365081141390000002907921768120585377_);}
	.st247{fill:url(#SVGID_00000134962948249672811620000011541431054898934180_);}
	.st248{fill:url(#SVGID_00000092454274500115175450000001467164564197187261_);}
	.st249{fill:url(#SVGID_00000160155947622279849100000001146187153518219194_);}
	.st250{fill:url(#SVGID_00000069378904066972499700000001373679280407608757_);}
	.st251{fill:url(#SVGID_00000005982244398197362930000001772594264994433440_);}
	.st252{fill:url(#SVGID_00000035527256222419525550000016435074478876620477_);}
	.st253{fill:none;stroke:#FC7A69;stroke-width:0.2154;}
	.st254{fill:none;stroke:#FC7A69;stroke-width:1.1807;}
	.st255{fill:url(#SVGID_00000034057835875921268330000001695208509492865211_);}
	.st256{fill:url(#SVGID_00000173870744977794650470000006042606039633817757_);}
	.st257{fill:url(#SVGID_00000111910091170839376610000006607670654993738656_);}
	.st258{fill:url(#SVGID_00000146494300010375403280000015465026095782506148_);}
	.st259{fill:url(#SVGID_00000104707615538467843510000017118043872409160619_);}
	.st260{fill:url(#SVGID_00000083795561647015987230000013215163331726037911_);}
	.st261{fill:url(#SVGID_00000107574485330676821390000001770914924122628004_);}
	.st262{fill:url(#SVGID_00000134227003933381146660000014514360161369294521_);}
	.st263{fill:url(#SVGID_00000146475724465324835520000015105132938375364273_);}
	.st264{fill:url(#SVGID_00000101809424401141302570000002958321969296838556_);}
	.st265{fill:url(#SVGID_00000077321366559869484130000017180030134711642800_);}
	.st266{fill:url(#SVGID_00000023979298423792335000000003758044563075308694_);}
	.st267{fill:url(#SVGID_00000098214978097312571270000016000204618659573901_);}
	.st268{fill:url(#SVGID_00000085225786642401779440000012239496122793329543_);}
	.st269{fill:url(#SVGID_00000153687362217812344980000012270148352017576064_);}
	.st270{fill:url(#SVGID_00000026140365406366414890000013454178837175371920_);}
	.st271{fill:url(#SVGID_00000040541944052172829920000016661004719616816780_);}
	.st272{fill:url(#SVGID_00000080177347972075720280000006839998312484709555_);}
	.st273{fill:url(#SVGID_00000088099524336001081230000015717030630259373484_);}
	.st274{fill:url(#SVGID_00000075144252950408846760000003771675671252092858_);}
	.st275{fill:url(#SVGID_00000168085418457791181290000010856730522568187814_);}
	.st276{fill:url(#SVGID_00000176018081836051806150000013313880196475138438_);}
	.st277{fill:url(#SVGID_00000076572256473959750490000013604224004205025939_);}
	.st278{fill:url(#SVGID_00000047773397930117264940000009140483171949488041_);}
	.st279{fill:url(#SVGID_00000153698281901988173740000006125495538703332782_);}
	.st280{fill:url(#SVGID_00000114761320556178780000000011836774326642153662_);}
	.st281{fill:url(#SVGID_00000122719398806804556190000016776612856636703421_);}
	.st282{fill:url(#SVGID_00000089534386271679689520000010312853610501905338_);}
	.st283{fill:url(#SVGID_00000151508602166768740850000000186749812386444981_);}
	.st284{fill:url(#SVGID_00000143590614667974965200000001599072464475010962_);}
	.st285{fill:url(#SVGID_00000146489923737233427990000017812048814848287371_);}
	.st286{fill:url(#SVGID_00000138546627930385485040000011665703996599686078_);}
	.st287{fill:url(#SVGID_00000036931775604963770060000002598433077479236767_);}
	.st288{fill:url(#SVGID_00000054948281405340590750000005898235129266072254_);}
	.st289{fill:url(#SVGID_00000140705127442691706140000016349847810750129837_);}
	.st290{fill:url(#SVGID_00000027602161298798255340000004109434654315458176_);}
	.st291{fill:url(#SVGID_00000122695815212903581800000005824639289540353720_);}
	.st292{fill:url(#SVGID_00000021804228820239737240000004136084243964041919_);}
	.st293{fill:url(#SVGID_00000094598377637357135840000007555044061258305444_);}
	.st294{fill:url(#SVGID_00000032614853878525767460000014238149788650437004_);}
	.st295{fill:url(#SVGID_00000026141288502146804310000015053453413767139728_);}
	.st296{fill:url(#SVGID_00000007396768141434862060000011716631101854041000_);}
	.st297{fill:url(#SVGID_00000183957854867005012100000002770157894993918140_);}
	.st298{fill:url(#SVGID_00000041268855539185225640000009979017065758641062_);}
	.st299{fill:url(#SVGID_00000159453522198918766690000016619246691810052531_);}
	.st300{fill:url(#SVGID_00000003812613771390372940000000960643119266316966_);}
	.st301{fill:url(#SVGID_00000021104570723062572880000000650247247776994744_);}
	.st302{fill:url(#SVGID_00000114047584956229656000000007285256122456803770_);}
	.st303{fill:url(#SVGID_00000023255986714484696440000016294593214027376291_);}
	.st304{fill:url(#SVGID_00000105409851815023438080000013866693718506245775_);}
	.st305{fill:url(#SVGID_00000176756424073103853840000016589568938302206861_);}
	.st306{fill:url(#SVGID_00000139258335130639699360000009218286709676798113_);}
	.st307{fill:url(#SVGID_00000094604153269139930160000010440604407650501046_);}
	.st308{fill:url(#SVGID_00000000219393659141693850000001227533386388992935_);}
	.st309{fill:url(#SVGID_00000018939128773956633960000003126105497842602170_);}
	.st310{fill:url(#SVGID_00000138555711140895151950000011549377183441208495_);}
	.st311{fill:url(#SVGID_00000180361526721709969060000008299022330970004153_);}
	.st312{fill:url(#SVGID_00000010271751388553756810000002670637663229656968_);}
	.st313{fill:url(#SVGID_00000116928362194512984770000016971940700423780755_);}
	.st314{fill:url(#SVGID_00000095335090262761024800000015643363695546120585_);}
	.st315{fill:url(#SVGID_00000123425940581164944200000016032814632261407119_);}
	.st316{fill:url(#SVGID_00000033332900154965900090000005117830356067198356_);}
	.st317{fill:url(#SVGID_00000076597228745736147860000008639336160343913620_);}
	.st318{fill:url(#SVGID_00000109003888847965984640000009270187642713878431_);}
	.st319{fill:url(#SVGID_00000091012174613472974670000000210886043066376862_);}
	.st320{fill:url(#SVGID_00000116942133348392767460000010652421525146364331_);}
	.st321{fill:url(#SVGID_00000068651554171525180400000000048737472594742701_);}
	.st322{fill:url(#SVGID_00000088128791824895540890000001553891544144656778_);}
	.st323{fill:url(#SVGID_00000028320810986730296140000016164732314714026678_);}
	.st324{fill:url(#SVGID_00000145749135965763862760000018152222308989243304_);}
	.st325{fill:url(#SVGID_00000155838493828233857650000008541631037560135858_);}
	.st326{fill:url(#SVGID_00000109010290773316345480000017964359626923479212_);}
	.st327{fill:url(#SVGID_00000066507433689374691350000002984328482727868860_);}
	.st328{fill:url(#SVGID_00000055695810573092521440000014712482803452629120_);}
	.st329{fill:url(#SVGID_00000150086479112173645850000014639115476490898106_);}
	.st330{fill:url(#SVGID_00000125590780124844273500000005919671648927205301_);}
	.st331{fill:none;stroke:#FC7A69;stroke-width:0.564;}
	.st332{fill:url(#SVGID_00000005978414998289296290000012664609551326809776_);}
	.st333{fill:url(#SVGID_00000145031070895288621630000003591967639878336447_);}
	.st334{fill:url(#SVGID_00000109000451217225189500000010061324378608249751_);}
	.st335{fill:url(#SVGID_00000026150773177194494200000009374076819560418945_);}
	.st336{fill:url(#SVGID_00000070076198867312760890000003536841824632430732_);}
	.st337{fill:url(#SVGID_00000047738433022329377940000008197357308247784638_);}
	.st338{fill:url(#SVGID_00000124849042096013927030000000509668967106241443_);}
	.st339{fill:url(#SVGID_00000065065660780578533720000000410872742824680580_);}
	.st340{fill:url(#SVGID_00000132059615462407022450000008791860469198647692_);}
	.st341{fill:url(#SVGID_00000040556755102902652390000017613267799883405444_);}
	.st342{fill:url(#SVGID_00000150071532867192283790000018332757791583691906_);}
	.st343{fill:url(#SVGID_00000159441318826038595330000011222938257792907435_);}
	.st344{fill:url(#SVGID_00000132084648303802367650000006725987593456214401_);}
	.st345{fill:url(#SVGID_00000021839076358817830890000004248954742326439093_);}
	.st346{fill:url(#SVGID_00000159463819303132915580000009691311182822965389_);}
	.st347{fill:url(#SVGID_00000085948600608267747730000011400692993834554019_);}
	.st348{fill:url(#SVGID_00000016755594927683015160000003543371874550813348_);}
	.st349{fill:url(#SVGID_00000154411241418636173020000008550609232147005096_);}
	.st350{fill:url(#SVGID_00000054258633714914146730000009557713958528949136_);}
	.st351{fill:url(#SVGID_00000065062280373355761820000003670491592106314887_);}
	.st352{fill:url(#SVGID_00000173861239583399863990000012386643767752546699_);}
	.st353{fill:url(#SVGID_00000162333474088586544970000003961527406870885028_);}
	.st354{fill:url(#SVGID_00000133501056553693864290000016474290004652839611_);}
	.st355{fill:url(#SVGID_00000138538742349038438520000017547212885026898872_);}
	.st356{fill:url(#SVGID_00000181807864863735126500000013551249075464111544_);}
	.st357{fill:url(#SVGID_00000142897403503952950610000012113624683380336828_);}
	.st358{fill:url(#SVGID_00000071560154737009944750000000543288378677843135_);}
	.st359{fill:url(#SVGID_00000124853458129910022790000005699387456775154365_);}
	.st360{fill:url(#SVGID_00000134953915508799661010000017059519727444662190_);}
	.st361{fill:url(#SVGID_00000024698739756065599070000006246490799496113848_);}
	.st362{fill:url(#SVGID_00000123400517072802271960000017159881749857399724_);}
	.st363{fill:url(#SVGID_00000134231427379160139080000008804661255539851649_);}
	.st364{fill:url(#SVGID_00000075134923288098275790000004168659093145131906_);}
	.st365{fill:url(#SVGID_00000119077392268747359240000014143085355394230681_);}
	.st366{fill:url(#SVGID_00000121279056777494334940000001450665502006646693_);}
	.st367{fill:url(#SVGID_00000090999300192622272440000012144645646935487398_);}
	.st368{fill:url(#SVGID_00000089572387905496375250000004196290670816423572_);}
	.st369{fill:url(#SVGID_00000087398955599187332560000000998986680513967546_);}
	.st370{fill:none;stroke:#FC7A69;stroke-width:0.2661;}
	.st371{fill:#FFF0EE;}
	.st372{fill:none;stroke:#FC7A69;stroke-width:0.9946;}
	.st373{fill:none;stroke:#051514;stroke-width:1.0262;stroke-linecap:round;stroke-linejoin:round;}
	.st374{fill:none;stroke:#FC7A69;stroke-width:0.9344;stroke-miterlimit:10;}
	.st375{fill:none;stroke:#FC7A69;stroke-width:0.9344;stroke-linecap:round;}
	.st376{fill:#FFEBE9;stroke:#FC7A69;stroke-width:0.7896;}
	.st377{fill:url(#SVGID_00000039117762738981998820000004759259831082302861_);}
	.st378{fill:url(#SVGID_00000056397563427349977210000014568214086184460197_);}
	.st379{fill:url(#SVGID_00000006705496492744593020000017826078415126797482_);}
	.st380{fill:url(#SVGID_00000047051378452073907500000011170262755649801858_);}
	.st381{fill:url(#SVGID_00000045586112988024813270000018000001404420249503_);}
	.st382{fill:url(#SVGID_00000148657527935867452230000000603392458102125190_);}
	.st383{fill:url(#SVGID_00000021810828027777488510000012991939897122537123_);}
	.st384{fill:url(#SVGID_00000107553691315875486250000008364637255287975072_);}
	.st385{fill:url(#SVGID_00000016787982476826259050000016150054714234864058_);}
	.st386{fill:url(#SVGID_00000074399639600785898750000009073712523621378449_);}
	.st387{fill:url(#SVGID_00000114056127573630698330000013923453568793196732_);}
	.st388{fill:url(#SVGID_00000014616137598917726170000012623697756033558159_);}
	.st389{fill:url(#SVGID_00000151505585140857572260000015670901051573446809_);}
	.st390{fill:url(#SVGID_00000091728658362138411960000007318229257459104959_);}
	.st391{fill:url(#SVGID_00000080912418023926309380000017130586444674957239_);}
	.st392{fill:url(#SVGID_00000090281480601444675030000013444423215117327791_);}
	.st393{fill:url(#SVGID_00000137821806606528277770000008079619382145817530_);}
	.st394{fill:url(#SVGID_00000072274019880891888870000008725852864234714005_);}
	.st395{fill:url(#SVGID_00000015318241159725859460000007249760151088227763_);}
	.st396{fill:url(#SVGID_00000068658953749763699120000013175622311149863598_);}
	.st397{fill:url(#SVGID_00000019636246535893481220000014230124446301832101_);}
	.st398{fill:url(#SVGID_00000165235329187908343740000006000458358711861663_);}
	.st399{fill:url(#SVGID_00000150061822186098786570000005262956960266510225_);}
	.st400{fill:url(#SVGID_00000074422596128895184370000006358844069840518568_);}
	.st401{fill:url(#SVGID_00000147902656687692268030000006958877650789339535_);}
	.st402{fill:url(#SVGID_00000121241847370395443560000000979459947151864704_);}
	.st403{fill:url(#SVGID_00000176725357862484465660000000935806328126912167_);}
	.st404{fill:url(#SVGID_00000139978715610635116990000008989995854848515767_);}
	.st405{fill:url(#SVGID_00000005230926982965404500000005191096978976279425_);}
	.st406{fill:url(#SVGID_00000033362498830387249960000016323343341454587802_);}
	.st407{fill:url(#SVGID_00000029736681979312799300000011375931603268230841_);}
	.st408{fill:url(#SVGID_00000145744199675559383420000008507561431214129809_);}
	.st409{fill:url(#SVGID_00000030487396817653992740000002008770304385119111_);}
	.st410{fill:url(#SVGID_00000117639965418876599490000010230215929769318530_);}
	.st411{fill:url(#SVGID_00000072971207152408538830000016027614204707336843_);}
	.st412{fill:url(#SVGID_00000049940185025861651100000017549323130689841573_);}
	.st413{fill:url(#SVGID_00000116196293716485276680000005671799614546386367_);}
	.st414{fill:url(#SVGID_00000163046509074745373780000016831201762739936392_);}
	.st415{fill:none;stroke:#FC7A69;stroke-width:0.3628;}
	.st416{fill:none;stroke:#FC7A69;stroke-width:1.2597;}
	.st417{fill:none;stroke:#051514;stroke-width:1.2998;stroke-linecap:round;stroke-linejoin:round;}
	.st418{fill:none;stroke:#FC7A69;stroke-width:1.1835;stroke-miterlimit:10;}
	.st419{fill:none;stroke:#FC7A69;stroke-width:1.1835;stroke-linecap:round;}
	.st420{fill:#FFEBE9;stroke:#FC7A69;}
	.st421{fill:url(#SVGID_00000092447128790042827330000002060659677168127381_);}
	.st422{fill:url(#SVGID_00000083772185563413928140000007280198707610380451_);}
	.st423{fill:url(#SVGID_00000124161089418041281390000012817705796052321178_);}
	.st424{fill:url(#SVGID_00000053543884553900905190000008961082761040295313_);}
	.st425{fill:url(#SVGID_00000094616425917626492380000015667784090502907576_);}
	.st426{fill:url(#SVGID_00000083074331815859333970000010635314554358247562_);}
	.st427{fill:url(#SVGID_00000173845735280766352760000013708196052129655949_);}
	.st428{fill:url(#SVGID_00000113314568087357398310000014688855578878795453_);}
	.st429{fill:url(#SVGID_00000145047736400451745410000012362130854851286955_);}
	.st430{fill:url(#SVGID_00000169529767368429915590000010127294618355286955_);}
	.st431{fill:url(#SVGID_00000016046152444448127350000009094648620988356758_);}
	.st432{fill:url(#SVGID_00000023268266377232577690000002113507153806663570_);}
	.st433{fill:url(#SVGID_00000053510102104305135330000003994813457580240559_);}
	.st434{fill:url(#SVGID_00000155105513041376984520000015101412873121072300_);}
	.st435{fill:url(#SVGID_00000174603845933502446930000004065820173736646033_);}
	.st436{fill:url(#SVGID_00000001623173721155085290000000258068006680056749_);}
	.st437{fill:url(#SVGID_00000150813924572630759880000017131721479531875467_);}
	.st438{fill:url(#SVGID_00000015316190762710777740000004791905926867112617_);}
	.st439{fill:url(#SVGID_00000071560835753384743470000000578195822229840042_);}
	.st440{fill:url(#SVGID_00000098188652201064399880000011182560113090777516_);}
	.st441{fill:url(#SVGID_00000088835008401204298140000002383768995606523575_);}
	.st442{fill:url(#SVGID_00000123436571909157584760000013626243205319615136_);}
	.st443{fill:url(#SVGID_00000152979190412187048160000017225378100229472422_);}
	.st444{fill:url(#SVGID_00000034075826334721845480000001498737391074517179_);}
	.st445{fill:url(#SVGID_00000070102366447715006160000013205485271905576338_);}
	.st446{fill:url(#SVGID_00000147903423534734369410000008998380844744384655_);}
	.st447{fill:url(#SVGID_00000062160924967165190790000011563646737556733086_);}
	.st448{fill:url(#SVGID_00000155853010661381552370000001495959156078992292_);}
	.st449{fill:url(#SVGID_00000094612015043439659980000016005021625155174529_);}
	.st450{fill:url(#SVGID_00000115492879854820020660000018249746441840616597_);}
	.st451{fill:url(#SVGID_00000127025963873574868240000001844336145575469217_);}
	.st452{fill:url(#SVGID_00000175317488008478323480000010116680293774577835_);}
	.st453{fill:url(#SVGID_00000085239586600515402410000005445357502022664630_);}
	.st454{fill:url(#SVGID_00000004509144308943874710000008871578197723829430_);}
	.st455{fill:url(#SVGID_00000145023809094654449290000006424616998916203449_);}
	.st456{fill:url(#SVGID_00000052805485565867165030000007923215358727288201_);}
	.st457{fill:url(#SVGID_00000057848782735241160090000013188672377417333928_);}
</style>
<g>
	<path class="st3" d="M387.5,316.73c0,0-4.28,10.59-9.62,10.1c-2.9-0.27-3.83-2.65-3.82-4.11l0.07-36h-14.43v36.89
		c-0.01,6.01,4.36,11.52,12.1,11.87c7.28,0.33,15.69-10.42,15.69-10.42l-0.01,9.26l14.36-0.12l0.09-47.48h-14.36L387.5,316.73z"/>
	<path class="st3" d="M338.14,329.88c0,6.18-5.16,11.18-11.52,11.18c-6.36,0-11.52-5.01-11.52-11.18c0-0.17,0.01-0.34,0.01-0.51
		c0.19,2.53,2.36,4.52,5.01,4.52c2.68,0,4.88-2.04,5.02-4.62h0.01v-14.11h-14.53v14.11l0,0c0.04,11.32,9.51,20.49,21.18,20.49
		c11.65,0,21.1-9.13,21.18-20.41h0v-55.84h-14.84v55.69V329.88z"/>
	<path class="st3" d="M435.69,286.93c-5.28-0.01-9.94,2.63-13.14,6.63l-0.05-6.84h-14.3l-0.11,65.96l14.36,0.02l0.03-23.88
		c2.64,3.83,7.55,6.76,13.11,6.77c9.93,0.02,18.61-10.08,18.64-24.3C454.27,297.08,445.63,286.95,435.69,286.93z M431.15,329.36
		c-3.55,0-7.28-4.26-8.65-7.73l0.04-20.78c1.37-3.46,5.12-7.7,8.67-7.7c5.11,0.01,7.46,5.99,7.44,18.11
		C438.63,323.39,436.25,329.37,431.15,329.36z"/>
	<path class="st3" d="M459.41,334.5h14.35l0.09-47.77h-14.44V334.5z"/>
	<path class="st3" d="M528.45,286.82c-14.58,0-23.63,11.17-23.64,24.29c-0.03,14.22,10.09,23.79,22.65,24.38
		c5.75,0.27,13.75-3.31,17.55-7.22l-2.33-3.37c-7.59,6.55-10.96,5.76-10.96,5.76c-9.48-0.02-11.17-7.4-11.14-20.07l27.89,0.05
		C547.72,295.55,538.95,286.82,528.45,286.82z M534.51,306.19l-13.94-0.03c0.01-7.47,2.12-16.88,7.86-16.88
		C532.85,289.28,534.99,300.07,534.51,306.19L534.51,306.19z"/>
	<path class="st3" d="M506.25,286.48l-7.91-0.02l0.02-15.88l-20.73,20.39l6.1,0.01l0.04,43.44h14.43l0.11-43.54l7.91,0.02
		L506.25,286.48z"/>
	<path class="st3" d="M579.01,286.33c-4.45,1.29-8.71,4.84-11.63,8.42l0.01-8.21h-14.44v47.77h7.62l6.74,0.01l0.05-30.88v-1.43
		c1.95-3.29,5.35-7.97,8.84-7.65c2.33,0.21,4.26,2.77,4.27,5.13l10.02-9.81C590.69,289.47,584.96,284.61,579.01,286.33z"/>
	<path class="st3" d="M343.3,249.46v5.87h8.39v2.92h-11.51v-19.84h11.22v2.89h-8.1v5.24h7.82v2.92H343.3z M362.57,250.85l5.27,7.4
		h-3.46l-3.71-5.41l-3.77,5.41h-3.37l5.27-7.31l-4.87-6.86h3.43l3.34,4.96l3.43-4.96h3.34L362.57,250.85z M376.32,258.56
		c-4,0-7.45-3.06-7.45-7.4c0-4.34,3.46-7.4,7.45-7.4c3.09,0,6.04,1.79,7.06,5.1h-3.09c-0.82-1.53-2.3-2.35-3.97-2.35
		c-2.52,0-4.48,2.01-4.48,4.65c0,2.64,1.96,4.65,4.48,4.65c1.67,0,3.15-0.82,3.97-2.35h3.09
		C382.36,256.78,379.41,258.56,376.32,258.56z M389.25,258.25h-2.95v-20.4h2.95V258.25z M399.68,258.56c-3.91,0-6.38-2.66-6.38-6.46
		v-8.02h2.95v8.02c0,2.21,1.33,3.71,3.43,3.71c2.1,0,3.46-1.5,3.46-3.71v-8.02h2.95v8.02C406.08,255.9,403.62,258.56,399.68,258.56z
		 M415.2,258.56c-3.49,0-5.78-1.96-5.92-4.62h2.92c0.11,1.16,1.19,2.07,3.03,2.07c1.45,0,2.55-0.57,2.55-1.7
		c0-3.09-8.1-0.85-8.1-6.43c0-2.35,2.35-4.11,5.38-4.11c2.86,0,5.27,1.9,5.38,4.48h-2.92c-0.08-1.11-1.11-1.93-2.61-1.93
		c-1.28,0-2.27,0.57-2.27,1.53c0,2.95,8.13,0.88,8.13,6.32C420.79,256.95,418.35,258.56,415.2,258.56z M427.33,241.56h-3.23v-3h3.23
		V241.56z M427.22,258.25h-2.95v-14.17h2.95V258.25z M436.85,254.2l4.22-10.12h3.12l-6.21,14.17h-2.32l-6.21-14.17h3.17
		L436.85,254.2z M452.73,243.77c4.28,0,7.88,3.6,7.08,8.44h-11.31c0.34,2.35,1.9,3.83,4.22,3.83c1.79,0,2.98-0.71,3.74-2.04h3.03
		c-1.08,2.69-3.4,4.56-6.77,4.56c-4,0-7.28-3.06-7.28-7.4C445.44,246.83,448.73,243.77,452.73,243.77z M452.73,246.29
		c-2.24,0-3.74,1.36-4.17,3.51h8.3C456.58,247.76,455.05,246.29,452.73,246.29z M466.02,258.25h-2.95v-20.4h2.95V258.25z
		 M475.93,253.77l4.25-9.69h3.15l-8.9,19.84h-3.09l3.06-6.83l-6.15-13.01h3.23L475.93,253.77z M499.42,258.56
		c-4.05,0-7.54-3.06-7.54-7.4c0-4.34,3.49-7.4,7.54-7.4s7.54,3.06,7.54,7.4C506.96,255.5,503.47,258.56,499.42,258.56z
		 M499.42,255.81c2.55,0,4.53-2.01,4.53-4.65c0-2.64-1.98-4.65-4.53-4.65c-2.58,0-4.56,2.01-4.56,4.65
		C494.86,253.8,496.84,255.81,499.42,255.81z M517.23,243.77c3.43,0,5.78,2.66,5.78,6.15v8.33h-2.95v-7.96
		c0-2.24-1.28-3.77-3.43-3.77c-2.07,0-3.66,1.53-3.66,3.77v7.96h-2.95v-14.17h2.86v1.67C514.03,244.45,515.56,243.77,517.23,243.77z
		"/>
	<path d="M120.76,267.7v17.01c-4.7-3.17-10.22-4.85-15.89-4.79c-17.57,0-30.45,13.05-30.45,30.61c0,17.56,12.87,30.7,30.45,30.7
		c6.65,0.06,13.06-2.26,18.12-6.55l1.86,4.82h11.56v-71.8H120.76z M106.15,326.42c-9.09,0-15.77-6.77-15.77-15.88
		c0-9.12,6.68-15.89,15.77-15.89c9.09,0,15.77,6.8,15.77,15.89S115.21,326.42,106.15,326.42z M262.22,310.32
		c0-16.68-12.17-30.4-29.93-30.4c-17.76,0-29.96,13.11-30.02,30.52v12.07l0.21,0.21l18.39,18.39h12.39c0.55,0,1.07-0.03,1.58-0.06
		c11.65-0.88,21.23-7.99,25.57-18.84H243.4c-2.53,3.11-6.47,4.97-11.08,4.97c-7.6,0-12.78-4.36-14.12-12.26h43.78
		c0.21-1.52,0.3-3.05,0.3-4.6H262.22z M247.03,306.81c0,0,0,0.06-0.03,0.09c0,0.03-0.03,0.03-0.06,0.03h-28.68c0,0-0.06,0-0.09-0.03
		c-0.03,0-0.03-0.06-0.03-0.09v-0.34c0.18-7.23,6.65-13.05,14.09-13.26h0.73c7.45,0.18,13.88,6.01,14.1,13.26v0.34H247.03z
		 M69.48,310.35c0-16.71-12.17-30.43-29.96-30.43c-17.79,0-30.02,13.17-30.02,30.61c0,17.44,12.94,30.61,30.02,30.61
		c12.81,0,23.46-7.32,28.1-18.93H50.59c-2.5,3.11-6.44,4.97-11.07,4.97c-7.6,0-12.78-4.36-14.16-12.26h43.81
		c0.18-1.52,0.3-3.05,0.3-4.6 M54.25,306.81c0,0,0,0.06-0.03,0.09c0,0-0.06,0.03-0.09,0.03H25.46c0,0-0.03,0-0.06,0h-0.03
		c0,0,0,0-0.03-0.03c0,0,0-0.03,0-0.06v-0.34c0.21-7.23,6.65-13.08,14.09-13.26h0.73c7.44,0.18,13.91,6.01,14.09,13.26v0.34V306.81z
		 M171.49,279.86c-0.4,0-0.76,0-1.16,0c-1.65,0-3.26,0.15-4.88,0.43l-0.3,0.06c-13.64,2.41-23.67,14.27-23.67,28.72
		c0,15.52,11.44,27.84,26.54,28.97c0.12,0,0.21,0,0.34,0c0.64,0.03,1.31,0.06,1.98,0.06c5.74,0.03,11.35-1.65,16.08-4.85
		c0.15-0.09,0.34-0.21,0.49-0.34v2.16c0,8.51-6.59,13.63-14.52,13.63c-0.7,0-1.41-0.03-2.11-0.12c0,0-0.06,0-0.09,0
		c-5.09-0.58-9.97-3.2-11.5-7.77h-15.59c2.26,11.19,10.58,18.66,22.54,20.73c0.36,0.06,0.76,0.12,1.13,0.18
		c1.95,0.27,3.91,0.43,5.89,0.43c18.33,0,29.62-11.13,29.62-29.33V310.6l-30.78-30.77V279.86z M172.2,324.04c0,0-0.15,0-0.24,0
		c-8.51-0.09-14.55-6.4-14.55-15.03c0-7.99,5.4-14.03,13.03-14.85c0.61-0.06,1.19-0.09,1.8-0.09c8.63,0,14.8,6.31,14.8,14.97
		c0,8.72-6.26,15.03-14.83,15.03"/>
	<path class="st3" d="M232.78,341.12h-11.9l-18.4-18.35l-0.18-0.21v-11.89L232.78,341.12z"/>
	<path class="st254" d="M286.97,255.89v92.1"/>
</g>
</svg>
