<svg width="150" height="36" viewBox="0 0 150 36" fill="none" xmlns="http://www.w3.org/2000/svg">
<g clip-path="url(#clip0_2690_2401)">
<path fill-rule="evenodd" clip-rule="evenodd" d="M84.1638 10.3447V23.224H89.4434V25.5228H81.9307V10.3447H84.1638Z" fill="white"/>
<path fill-rule="evenodd" clip-rule="evenodd" d="M93.1554 14.2055C92.6567 14.6983 92.2634 15.2866 91.999 15.9349C91.7347 16.5833 91.6049 17.2782 91.6174 17.9779C91.6067 18.6678 91.7325 19.353 91.9876 19.9945C92.2427 20.6359 92.622 21.221 93.1041 21.7164C93.5861 22.2117 94.1613 22.6076 94.7969 22.8814C95.4324 23.1553 96.1159 23.3017 96.8083 23.3123C97.5006 23.323 98.1883 23.1976 98.8321 22.9435C99.4758 22.6893 100.063 22.3113 100.56 21.831C101.057 21.3507 101.455 20.7775 101.729 20.1442C102.004 19.5109 102.151 18.8299 102.162 18.14V17.9779C102.19 16.5913 101.666 15.2499 100.705 14.2473C99.7428 13.2448 98.4216 12.6628 97.0301 12.6288C96.311 12.6178 95.597 12.7519 94.9312 13.0228C94.2653 13.2938 93.6613 13.6961 93.1554 14.2055ZM91.573 23.3713C90.6789 22.5116 90.0112 21.4456 89.6291 20.2675C89.247 19.0894 89.1621 17.8357 89.3821 16.6172C89.6021 15.3987 90.1202 14.253 90.8904 13.2815C91.6607 12.31 92.6593 11.5427 93.7981 11.0474C94.9368 10.5522 96.1806 10.3442 97.4192 10.442C98.6578 10.5398 99.8532 10.9402 100.899 11.608C101.946 12.2758 102.811 13.1902 103.418 14.2704C104.025 15.3506 104.355 16.5633 104.38 17.8011V17.9927C104.416 19.4866 104 20.9567 103.186 22.2116C102.372 23.4666 101.197 24.4481 99.8152 25.0285C98.4332 25.6089 96.9078 25.7612 95.4378 25.4656C93.9677 25.1701 92.621 24.4403 91.573 23.3713Z" fill="white"/>
<path fill-rule="evenodd" clip-rule="evenodd" d="M109.512 19.761H113.121V13.8666L109.512 19.761ZM115.339 10.3447V25.6554H113.106V22.0893H108.093L105.933 25.6554H103.286L112.588 10.3447H115.339Z" fill="white"/>
<path fill-rule="evenodd" clip-rule="evenodd" d="M128.575 10.3447V25.6554H126.238L119.938 14.7066V25.6554H117.705V10.3447H120.042L126.342 21.2936V10.3447H128.575Z" fill="white"/>
<path fill-rule="evenodd" clip-rule="evenodd" d="M134.919 25.7586C133.947 25.7298 132.999 25.4506 132.168 24.9481C131.268 24.453 130.575 23.6532 130.216 22.6935L132.36 21.8977C132.563 22.3985 132.949 22.804 133.44 23.0324C133.927 23.279 134.461 23.4196 135.007 23.445C135.793 23.5162 136.577 23.2842 137.196 22.7966C137.415 22.6364 137.598 22.4312 137.73 22.1947C137.863 21.9583 137.943 21.6962 137.965 21.4262C138.01 20.4536 137.004 19.6726 134.948 19.0832C131.739 18.1695 130.171 16.6075 130.275 14.4119C130.334 12.8793 130.985 11.7299 132.227 10.9636C133.249 10.363 134.431 10.0903 135.614 10.1826C137.211 10.2563 138.498 10.8163 139.459 11.8773L137.788 13.454C137.241 12.8498 136.486 12.5404 135.51 12.4814C134.911 12.4369 134.31 12.5276 133.75 12.7467C133.396 12.8821 133.092 13.1232 132.881 13.4371C132.669 13.7509 132.559 14.1222 132.567 14.5003C132.523 15.4581 133.529 16.2244 135.584 16.8138C137.433 17.3443 138.734 18.1106 139.503 19.1421C140.023 19.8155 140.285 20.6514 140.243 21.4999C140.211 22.0984 140.051 22.6832 139.773 23.2146C139.495 23.746 139.105 24.2116 138.631 24.5797C137.663 25.3634 136.446 25.7763 135.2 25.7438L134.919 25.7586Z" fill="white"/>
<path fill-rule="evenodd" clip-rule="evenodd" d="M20.6604 7.427V10.6247H13.0589V16.3717H18.9301V19.5695H13.0589V28.5731H9.83496V7.427H20.6604Z" fill="white"/>
<path fill-rule="evenodd" clip-rule="evenodd" d="M25.9104 7.427V28.5731H15.085V25.3754H22.7012V7.427H25.9104Z" fill="white"/>
<path d="M35.7448 17.7863V17.7126C35.7478 17.4667 35.7379 17.2208 35.7152 16.9758C35.651 15.806 35.4677 14.6458 35.168 13.5129C34.7125 11.7418 33.9948 10.0482 33.0384 8.48792C31.0448 5.23364 28.0604 2.69873 24.52 1.25256C23.1343 0.697481 21.6831 0.321121 20.2016 0.132624C19.8171 0.0736798 19.4326 0.058944 19.0185 0.0294721L17.2734 0C17.1847 0 17.096 0.014736 17.0072 0.014736C16.8993 0.0273369 16.7906 0.0322614 16.6819 0.0294721C16.3565 0.0442081 16.0312 0.088416 15.7206 0.117888L15.484 0.14736C14.6755 0.263316 13.8752 0.430665 13.0882 0.648383C12.7924 0.722063 12.4966 0.825215 12.2008 0.928367L11.3135 1.25256C11.1213 1.32624 10.9142 1.41465 10.722 1.50307C7.54912 2.92562 4.85391 5.22754 2.95778 8.13426C1.99373 9.61753 1.24677 11.2301 0.739446 12.9235C0.487272 13.7727 0.299418 14.6397 0.177467 15.517C0.0589939 16.3913 -0.000295221 17.2725 1.10525e-06 18.1547L0.0147898 18.8178C0.0147898 19.0242 0.0295782 19.2157 0.0443671 19.422V19.4957C0.0739449 19.9525 0.133101 20.4093 0.192256 20.8219C0.329305 21.7051 0.531977 22.5769 0.798601 23.4302C1.06227 24.2687 1.38853 25.0864 1.77467 25.8764C2.16189 26.6584 2.5965 27.4163 3.07609 28.1457C4.99677 30.968 7.68488 33.1865 10.8255 34.5411C11.0177 34.6296 11.21 34.718 11.4022 34.7916L11.979 35.0127C12.1121 35.0569 12.2452 35.1011 12.3635 35.1306C12.6149 35.219 12.8811 35.2927 13.1325 35.3664C13.9079 35.5877 14.6989 35.7502 15.4988 35.8526L15.7502 35.8821C16.0608 35.9263 16.3713 35.9558 16.6819 35.9705L16.8741 35.9853C17.0118 35.9975 17.15 36.0025 17.2882 36H18.2199C18.4861 36 18.7523 35.9853 19.0185 35.9705L19.3735 35.9411C19.6397 35.9263 19.9059 35.8968 20.1573 35.8674C22.9743 35.5068 25.6628 34.4757 27.9954 32.8612C29.9437 31.5002 31.6065 29.7733 32.8905 27.7773C33.4269 26.9561 33.8872 26.088 34.2659 25.1838C34.6034 24.4207 34.8804 23.6323 35.0941 22.826C35.4094 21.7049 35.6076 20.5543 35.6856 19.3926C35.7152 19.0831 35.73 18.7736 35.73 18.4642L35.7448 17.7863ZM35.2272 18.1989V18.6852C35.2304 18.9214 35.2205 19.1575 35.1976 19.3926C35.1245 20.5247 34.9312 21.646 34.6208 22.7376C34.1497 24.4371 33.4055 26.0495 32.4173 27.5121C31.143 29.4036 29.4918 31.0137 27.5665 32.2423C26.4693 32.9375 25.2989 33.5108 24.0763 33.9517C22.7744 34.4241 21.4179 34.7311 20.039 34.8653C19.6908 34.9113 19.3401 34.936 18.989 34.939H18.6192C18.3826 34.939 18.146 34.9537 17.8946 34.939L17.3326 34.9243C17.2138 34.9218 17.0952 34.9119 16.9777 34.8948L16.7854 34.8801C16.5129 34.8644 16.2415 34.8349 15.972 34.7916L15.691 34.7474C14.9458 34.6313 14.2095 34.4638 13.4875 34.2464C13.232 34.1813 12.9803 34.1026 12.7332 34.0106C12.6149 33.9664 12.5114 33.937 12.4079 33.8928L11.8607 33.6717L11.3283 33.4507C8.43263 32.1379 5.97084 30.0324 4.22963 27.3795C3.79161 26.7049 3.40122 26.0008 3.0613 25.2722C2.38112 23.8 1.92266 22.2359 1.70072 20.6304C1.59453 19.8291 1.54019 19.0219 1.53805 18.2137C1.55498 17.3996 1.62413 16.5875 1.74509 15.7822C1.87491 14.9851 2.05771 14.1975 2.29228 13.4245C2.53391 12.6556 2.83554 11.9066 3.1944 11.1846C4.92745 7.64418 7.86844 4.83386 11.491 3.25665C11.6537 3.18297 11.8311 3.10929 12.0086 3.03561L12.8072 2.74089C13.0734 2.65248 13.3396 2.56406 13.6058 2.49038C14.3104 2.28639 15.0264 2.12401 15.7502 2.00409L16.0164 1.97462C16.2826 1.94515 16.5636 1.90094 16.8298 1.88621L17.0072 1.87147C17.1248 1.85434 17.2434 1.8445 17.3622 1.842L18.9594 1.82726C19.0822 1.83924 19.2057 1.84416 19.3291 1.842C19.5509 1.85673 19.7728 1.87147 19.9798 1.88621L20.1425 1.90094C20.4303 1.92475 20.7167 1.9641 21.0002 2.01883L21.1777 2.0483C21.2873 2.0608 21.396 2.08049 21.5031 2.10725L22.0059 2.2104C22.336 2.26803 22.662 2.34678 22.982 2.44617L23.2186 2.51985L23.9284 2.74089C25.1334 3.15952 26.2888 3.70801 27.3743 4.37659C29.2886 5.56301 30.9434 7.12167 32.2398 8.95948C33.9095 11.3245 34.9107 14.0932 35.1384 16.9758C35.1651 17.1959 35.1799 17.4173 35.1828 17.639V17.8895H35.168L35.2272 18.1989Z" fill="white"/>
<path d="M39.2051 25.7733V10.3447H47.4573V11.6415H40.403V17.3148H46.0967V18.5969H40.403V25.7733H39.2051Z" fill="white"/>
<path d="M56.42 25.7733H48.1826V10.3447H49.3805V24.5355H56.42V25.7733Z" fill="white"/>
<path d="M65.2632 25.7733H57.085V10.3447H65.3372V11.6415H58.3124V17.3591H63.8879V18.6264H58.3124V24.4765H65.2484V25.7733H65.2632Z" fill="white"/>
<path d="M71.2081 18.1548L75.6448 25.7733H74.2251L70.513 19.4221H70.4539L66.7123 25.7733H65.3074L69.7588 18.199L65.1299 10.3447H66.5348L70.4243 16.9759H70.4835L74.4321 10.3447H75.8518L71.2081 18.1548Z" fill="white"/>
<path d="M76.207 25.7731V10.374H77.4493V25.7731H76.207Z" fill="white"/>
<path d="M140.272 5.29455C140.271 4.85934 140.329 4.42594 140.445 4.00634C140.558 3.60039 140.722 3.2106 140.935 2.84661C141.144 2.4877 141.401 2.15796 141.697 1.86593C141.993 1.57331 142.324 1.31853 142.683 1.10747C143.426 0.671993 144.273 0.442383 145.136 0.442383C145.999 0.442383 146.846 0.671993 147.59 1.10747C147.948 1.31902 148.279 1.57376 148.575 1.86593C148.871 2.15847 149.127 2.48814 149.338 2.84661C149.664 3.40481 149.875 4.02228 149.959 4.66288C150.043 5.30348 149.998 5.95432 149.826 6.57732C149.604 7.38547 149.173 8.12114 148.575 8.71035C148.279 9.00253 147.948 9.25727 147.59 9.46882C146.846 9.90516 145.999 10.1353 145.136 10.1353C144.273 10.1353 143.426 9.90516 142.683 9.46882C142.324 9.25776 141.993 9.00298 141.697 8.71035C141.401 8.41925 141.145 8.09079 140.935 7.73336C140.722 7.37156 140.558 6.98394 140.445 6.58012C140.329 6.16146 140.271 5.72891 140.272 5.29455ZM140.938 5.29455C140.937 5.67719 140.986 6.05832 141.085 6.42805C141.274 7.13477 141.643 7.78079 142.156 8.3032C142.75 8.89478 143.507 9.29653 144.33 9.45702C145.154 9.61752 146.007 9.52948 146.781 9.20416C147.281 8.99138 147.736 8.68414 148.12 8.29937C148.503 7.91227 148.808 7.45556 149.018 6.95397C149.24 6.42887 149.353 5.86418 149.348 5.29441C149.35 4.53596 149.153 3.79026 148.775 3.13146C148.593 2.81654 148.372 2.52605 148.116 2.26705C147.864 2.0089 147.579 1.78508 147.268 1.60142C146.952 1.4155 146.612 1.27182 146.259 1.17408C145.891 1.0711 145.51 1.01967 145.128 1.02127C144.562 1.01693 144.002 1.13089 143.483 1.35577C142.986 1.57077 142.535 1.87995 142.156 2.26616C141.37 3.07782 140.933 4.16301 140.937 5.29087L140.938 5.29455ZM144.175 5.89092V8.23483H143.138V2.32805H145.051C145.815 2.32805 146.381 2.46618 146.747 2.74243C147.113 3.01868 147.297 3.42495 147.3 3.96124C147.311 4.34525 147.185 4.72062 146.944 5.02076C146.668 5.33491 146.294 5.54765 145.882 5.62494C145.956 5.66839 146.023 5.72422 146.078 5.78998C146.138 5.86227 146.19 5.94014 146.234 6.02251L147.753 8.23527H146.768C146.703 8.23915 146.639 8.22581 146.582 8.19664C146.524 8.16747 146.476 8.12352 146.441 8.06934L145.103 6.06849C145.066 6.0138 145.017 5.96839 144.96 5.93586C144.879 5.8998 144.791 5.88372 144.703 5.889L144.175 5.89092ZM144.175 5.14086H144.946C145.156 5.14495 145.365 5.12132 145.569 5.07057C145.72 5.03472 145.861 4.96586 145.982 4.86898C146.085 4.78269 146.163 4.67086 146.209 4.54479C146.258 4.40175 146.281 4.2514 146.279 4.10035C146.281 3.95447 146.26 3.80918 146.215 3.67006C146.176 3.55127 146.104 3.44574 146.008 3.36532C145.898 3.27829 145.769 3.2171 145.631 3.18628C145.441 3.14283 145.247 3.12268 145.052 3.1263H144.174L144.175 5.14086Z" fill="white"/>
</g>
<defs>
<clipPath id="clip0_2690_2401">
<rect width="150" height="36" fill="white"/>
</clipPath>
</defs>
</svg>
