<svg width="152" height="100" viewBox="0 0 152 100" fill="none" xmlns="http://www.w3.org/2000/svg">
<path d="M41.3921 25.0003V47.5966L52.6707 53.2381V19.3438L41.3921 25.0003Z" fill="#00F200"/>
<path d="M30.1132 25.0003L18.8347 19.3438V53.2381L30.1132 47.5966V25.0003Z" fill="#00F200"/>
<path d="M76.5497 25.94H68.8386V19.3438H63.949V37.2494H68.8386V30.0777H76.5497V37.2494H81.428V19.3438H76.5497V25.94Z" fill="#E9FFE6"/>
<path d="M92.394 18.875C87.0146 18.875 83.4077 22.5939 83.4077 28.1731C83.4077 33.7524 86.9751 37.6637 92.5484 37.6637C97.0029 37.6637 100.058 35.6184 101.201 31.7448H95.9256C95.449 33.1599 94.3321 33.8712 92.6539 33.8712C90.1318 33.8712 88.6175 32.375 88.4913 29.7731H101.203C101.203 29.1467 101.239 28.9241 101.239 28.6241C101.239 22.5976 97.8279 18.8769 92.3958 18.8769L92.394 18.875ZM88.4612 26.2014C88.8718 23.7844 90.2072 22.5203 92.3676 22.5203C94.528 22.5203 96.0442 24.009 96.1139 26.2014H88.4612Z" fill="#E9FFE6"/>
<path d="M109.551 19.1032C107.822 19.4466 103.384 20.7843 103.384 27.5635V37.2541H108.327V29.2352C108.327 26.2994 108.733 24.922 109.958 24.0315C110.704 23.4333 111.785 23.1013 113.041 23.1013C113.561 23.1013 113.785 23.139 114.38 23.2484V19.1843C114.38 19.1843 112.406 18.5447 109.549 19.105L109.551 19.1032Z" fill="#E9FFE6"/>
<path d="M124.158 18.8711C118.616 18.8711 115.051 22.5541 115.051 28.2805C115.051 34.0069 118.616 37.6598 124.158 37.6598C129.699 37.6598 133.221 33.9711 133.221 28.2805C133.221 22.59 129.65 18.8711 124.158 18.8711ZM124.158 33.9352C121.553 33.9352 120.035 31.8164 120.035 28.2805C120.035 24.7447 121.523 22.6258 124.158 22.6258C126.793 22.6258 128.247 24.6749 128.247 28.2466C128.247 31.8183 126.757 33.9352 124.158 33.9352Z" fill="#E9FFE6"/>
<path d="M63.949 42.4102H70.9745V44.0026H65.9247V47.1422H70.3247V48.7196H65.9247V53.2366H63.949V42.4102Z" fill="#E9FFE6"/>
<path d="M75.2334 53.2405H73.2576V42.4141H75.2334V53.2405Z" fill="#E9FFE6"/>
<path d="M78.0961 42.4102H79.5935L84.9351 49.6649V42.4102H86.911V53.2366H85.4287L80.07 45.9366V53.2366H78.0942V42.4102H78.0961Z" fill="#E9FFE6"/>
<path d="M94.8595 42.2422C96.4962 42.2422 97.5774 42.7516 98.5813 43.5101L97.794 44.995C97.0368 44.4384 96.0348 44.0044 94.8764 44.0044C92.4222 44.0044 90.9851 45.7214 90.9851 47.8252C90.9851 49.929 92.4203 51.646 94.8764 51.646C96.0348 51.646 97.0387 51.229 97.794 50.6554L98.5813 52.1554C97.5774 52.9139 96.4962 53.4082 94.8595 53.4082C91.1998 53.4082 88.9622 50.8403 88.9622 47.8252C88.9622 44.8101 91.2017 42.2422 94.8595 42.2422Z" fill="#E9FFE6"/>
<path d="M105.377 42.2422C108.464 42.2422 111.027 44.7478 111.027 47.8252C111.027 50.9026 108.464 53.4082 105.377 53.4082C102.29 53.4082 99.7263 50.9026 99.7263 47.8252C99.7263 44.7478 102.29 42.2422 105.377 42.2422ZM105.377 51.6158C107.368 51.6158 109.022 50.0082 109.022 47.8271C109.022 45.646 107.37 44.0384 105.377 44.0384C103.384 44.0384 101.732 45.646 101.732 47.8271C101.732 50.0082 103.384 51.6158 105.377 51.6158Z" fill="#E9FFE6"/>
<path d="M123.585 42.4102H128.124C130.286 42.4102 131.505 44.0196 131.505 45.8894C131.505 47.7592 130.269 49.2762 128.124 49.2762H125.561V53.2366H123.585V42.4102ZM125.561 44.0026V47.7139H127.815C128.849 47.7139 129.482 46.9554 129.482 45.8743C129.482 44.7932 128.849 44.0026 127.815 44.0026H125.561Z" fill="#E9FFE6"/>
<path d="M121.489 53.2405L118.754 49.1254C120.204 48.7065 121.074 47.4329 121.074 45.8933C121.074 44.0367 119.854 42.4141 117.708 42.4141H113.045V53.2405H115.021V49.265H116.682L119.155 53.2405H121.487H121.489ZM115.023 44.0537H117.4C118.403 44.0537 119.066 44.8273 119.066 45.8782C119.066 46.9292 118.419 47.6876 117.4 47.6876H115.023V44.0537Z" fill="#E9FFE6"/>
<path d="M19.3955 65.0742H136.952" stroke="#E9FFE6" stroke-width="0.387335"/>
<path d="M23.8118 75.8809V83.4727H22.7273V75.8809H23.8118ZM29.56 83.4727V80.4143C29.56 79.2647 29.0286 78.8634 28.4538 78.8634C27.8898 78.8634 26.7077 79.2538 26.7077 80.9565V83.4727H25.6557V78.05H26.7077V79.1345C26.9354 78.3536 27.6295 77.9307 28.5297 77.9307C29.701 77.9307 30.612 78.6682 30.612 80.4143V83.4727H29.56ZM35.5739 79.2213L34.6412 79.4273C34.4677 78.9393 34.1315 78.8308 33.7953 78.8308C33.3073 78.8308 32.9927 79.1345 32.9927 79.5249C32.9927 79.8828 33.3073 80.0564 33.6435 80.1757L34.4243 80.436C35.4546 80.7505 35.7258 81.3903 35.7258 81.9651C35.7258 82.9955 34.8256 83.592 33.7736 83.592C32.8084 83.592 31.9407 83.0931 31.6804 82.1712L32.6131 81.9435C32.7433 82.3773 33.2313 82.6918 33.7844 82.6918C34.3376 82.6918 34.7172 82.3773 34.7172 81.9543C34.7172 81.5747 34.4135 81.4012 34.0339 81.271L33.3073 81.0216C32.4396 80.7613 31.9733 80.295 31.9733 79.5466C31.9733 78.6356 32.6891 77.9307 33.7628 77.9307C34.5002 77.9307 35.292 78.2452 35.5739 79.2213ZM38.3005 78.8742V81.835C38.3005 82.4423 38.5934 82.6701 38.9513 82.6701C39.2875 82.6701 39.6128 82.4749 39.6128 82.0736C39.6128 81.9977 39.602 81.7916 39.5261 81.6289H40.4479C40.4913 81.7482 40.5238 81.8784 40.5347 81.9977C40.5455 82.0736 40.5455 82.1387 40.5455 82.2146C40.5455 82.9955 39.9924 83.592 38.9404 83.592C38.0836 83.592 37.2485 83.1473 37.2485 81.7591V78.8742H36.3592V78.05H37.2485L37.4871 76.4882H38.3005V78.05H40.0249V78.8742H38.3005ZM41.1306 80.7613C41.1306 79.1996 42.1934 77.9307 43.8202 77.9307C44.5577 77.9307 45.2627 78.1801 45.7832 78.9176V78.05H46.8352V83.4727H45.7832V82.605C45.2627 83.3425 44.5577 83.592 43.8202 83.592C42.1934 83.592 41.1306 82.323 41.1306 80.7613ZM45.8049 80.7613C45.8049 79.6659 45.0458 78.8634 43.9504 78.8634C42.8225 78.8634 42.1826 79.731 42.1826 80.7613C42.1826 81.7916 42.8225 82.6593 43.9504 82.6593C45.0458 82.6593 45.8049 81.8567 45.8049 80.7613ZM52.4052 83.4727V80.4143C52.4052 79.2647 51.8738 78.8634 51.299 78.8634C50.735 78.8634 49.5529 79.2538 49.5529 80.9565V83.4727H48.5009V78.05H49.5529V79.1345C49.7806 78.3536 50.4747 77.9307 51.3749 77.9307C52.5462 77.9307 53.4572 78.6682 53.4572 80.4143V83.4727H52.4052ZM56.295 78.8742V81.835C56.295 82.4423 56.5878 82.6701 56.9457 82.6701C57.2819 82.6701 57.6072 82.4749 57.6072 82.0736C57.6072 81.9977 57.5964 81.7916 57.5205 81.6289H58.4423C58.4857 81.7482 58.5183 81.8784 58.5291 81.9977C58.5399 82.0736 58.5399 82.1387 58.5399 82.2146C58.5399 82.9955 57.9868 83.592 56.9348 83.592C56.078 83.592 55.243 83.1473 55.243 81.7591V78.8742H54.3536V78.05H55.243L55.4815 76.4882H56.295V78.05H58.0194V78.8742H56.295ZM63.6982 83.4727H62.6137V75.8809H65.6504C67.1036 75.8809 67.9387 76.998 67.9387 78.2669C67.9387 79.5358 67.0819 80.5986 65.6504 80.5986H63.6982V83.4727ZM63.6982 79.731H65.4226C66.2902 79.731 66.8108 79.1237 66.8108 78.256C66.8108 77.3776 66.2902 76.7702 65.4226 76.7702H63.6982V79.731ZM73.3988 81.976L73.9844 82.5833C73.2903 83.3642 72.4227 83.592 71.6093 83.592C69.7222 83.592 68.5509 82.3122 68.5509 80.783C68.5509 79.1887 69.7764 77.9307 71.4683 77.9307C72.8999 77.9307 74.2339 78.8525 74.2339 80.8589H69.6029C69.5704 81.9001 70.4163 82.6593 71.6201 82.6593C72.2817 82.6593 72.8674 82.4315 73.3988 81.976ZM71.49 78.8525C70.861 78.8525 70.0476 79.102 69.7005 80.0455H73.1493C72.8565 79.0586 72.0865 78.8525 71.49 78.8525ZM76.4651 78.05V79.2755C76.6494 78.4079 77.2351 77.9307 77.9183 77.9307C78.1244 77.9307 78.2545 77.9741 78.4172 78.05V79.0803C78.2437 78.9827 78.0485 78.9393 77.8424 78.9393C77.4845 78.9393 76.4651 79.1237 76.4651 81.4229V83.4727H75.4131V78.05H76.4651ZM82.7577 79.2213L81.825 79.4273C81.6514 78.9393 81.3152 78.8308 80.979 78.8308C80.491 78.8308 80.1765 79.1345 80.1765 79.5249C80.1765 79.8828 80.491 80.0564 80.8272 80.1757L81.608 80.436C82.6384 80.7505 82.9095 81.3903 82.9095 81.9651C82.9095 82.9955 82.0093 83.592 80.9573 83.592C79.9921 83.592 79.1245 83.0931 78.8642 82.1712L79.7969 81.9435C79.927 82.3773 80.4151 82.6918 80.9682 82.6918C81.5213 82.6918 81.9009 82.3773 81.9009 81.9543C81.9009 81.5747 81.5972 81.4012 81.2176 81.271L80.491 81.0216C79.6233 80.7613 79.157 80.295 79.157 79.5466C79.157 78.6356 79.8728 77.9307 80.9465 77.9307C81.684 77.9307 82.4757 78.2452 82.7577 79.2213ZM83.7598 80.7613C83.7598 79.1996 85.0396 77.9307 86.6013 77.9307C88.1739 77.9307 89.4537 79.1996 89.4537 80.7613C89.4537 82.323 88.1739 83.592 86.6013 83.592C85.0396 83.592 83.7598 82.3339 83.7598 80.7613ZM84.8118 80.7722C84.8118 81.8133 85.6144 82.6593 86.6013 82.6593C87.5991 82.6593 88.4017 81.8133 88.4017 80.7722C88.4017 79.731 87.5991 78.8634 86.6013 78.8634C85.6144 78.8634 84.8118 79.731 84.8118 80.7722ZM94.6111 83.4727V80.4143C94.6111 79.2647 94.0796 78.8634 93.5048 78.8634C92.9409 78.8634 91.7587 79.2538 91.7587 80.9565V83.4727H90.7067V78.05H91.7587V79.1345C91.9865 78.3536 92.6806 77.9307 93.5807 77.9307C94.752 77.9307 95.6631 78.6682 95.6631 80.4143V83.4727H94.6111ZM96.8508 80.7613C96.8508 79.1996 97.9136 77.9307 99.5405 77.9307C100.278 77.9307 100.983 78.1801 101.503 78.9176V78.05H102.555V83.4727H101.503V82.605C100.983 83.3425 100.278 83.592 99.5405 83.592C97.9136 83.592 96.8508 82.323 96.8508 80.7613ZM101.525 80.7613C101.525 79.6659 100.766 78.8634 99.6706 78.8634C98.5427 78.8634 97.9028 79.731 97.9028 80.7613C97.9028 81.7916 98.5427 82.6593 99.6706 82.6593C100.766 82.6593 101.525 81.8567 101.525 80.7613ZM105.306 75.6315V83.4727H104.254V75.6315H105.306ZM114.649 82.5833V83.4727H110.094V75.8809H111.178V82.5833H114.649ZM115.057 80.7613C115.057 79.1996 116.337 77.9307 117.898 77.9307C119.471 77.9307 120.751 79.1996 120.751 80.7613C120.751 82.323 119.471 83.592 117.898 83.592C116.337 83.592 115.057 82.3339 115.057 80.7613ZM116.109 80.7722C116.109 81.8133 116.911 82.6593 117.898 82.6593C118.896 82.6593 119.699 81.8133 119.699 80.7722C119.699 79.731 118.896 78.8634 117.898 78.8634C116.911 78.8634 116.109 79.731 116.109 80.7722ZM121.602 80.7613C121.602 79.1996 122.665 77.9307 124.292 77.9307C125.03 77.9307 125.734 78.1801 126.255 78.9176V78.05H127.307V83.4727H126.255V82.605C125.734 83.3425 125.03 83.592 124.292 83.592C122.665 83.592 121.602 82.323 121.602 80.7613ZM126.277 80.7613C126.277 79.6659 125.518 78.8634 124.422 78.8634C123.294 78.8634 122.654 79.731 122.654 80.7613C122.654 81.7916 123.294 82.6593 124.422 82.6593C125.518 82.6593 126.277 81.8567 126.277 80.7613ZM132.877 83.4727V80.4143C132.877 79.2647 132.346 78.8634 131.771 78.8634C131.207 78.8634 130.025 79.2538 130.025 80.9565V83.4727H128.973V78.05H130.025V79.1345C130.252 78.3536 130.947 77.9307 131.847 77.9307C133.018 77.9307 133.929 78.6682 133.929 80.4143V83.4727H132.877Z" fill="#E9FFE6"/>
</svg>
