<?xml version="1.0" encoding="UTF-8"?><svg id="Layer_1" xmlns="http://www.w3.org/2000/svg" viewBox="0 0 433.87 100"><defs><style>.cls-1{fill:none;}.cls-2{fill:#fdd535;}.cls-3{fill:#131a2d;}</style></defs><path id="Path_43" class="cls-2" d="m86.22,52.36c-1.1-5.62-6.54-9.29-12.17-8.2,0,0,0,0-.01,0l-7.42,1.45s-.1.01-.14.01c-.24,0-.45-.15-.54-.37-.11-.21-.08-.48.08-.66l5.2-6.48c.61-.77,1.11-1.63,1.48-2.54,2.06-5.15-.44-10.99-5.59-13.05-.05-.02-.11-.04-.16-.06-1.12-.43-2.31-.65-3.51-.65-4.16.04-7.88,2.58-9.43,6.43l-9.59,23.97c-.2.5-.33,1.02-.41,1.55-.49,3.61,2.03,6.94,5.64,7.43l24.99,3.43c.47.06.94.09,1.41.09,5.73,0,10.38-4.65,10.38-10.38,0-.67-.06-1.34-.19-1.99h0Z"/><path id="Path_44" class="cls-3" d="m420.12,67.34c-1.95.47-3.99.3-5.83-.49-1.76-.68-3.16-2.06-3.86-3.81l19.27-4.4c2.73-.62,4.44-3.34,3.82-6.07h0c-.78-4.39-3.5-8.17-7.39-10.31-3.87-2.04-8.36-2.57-12.6-1.49-4.43.95-8.32,3.59-10.84,7.36-2.68,4.02-3.48,9-2.18,13.65.85,4.74,3.69,8.9,7.81,11.41,4.11,2.38,8.99,3.03,13.58,1.82,4.94-1.08,9.25-4.08,11.98-8.34l-6.02-4.13c-.24-.17-.58-.1-.74.14,0,0,0,0,0,0-1.62,2.42-4.13,4.1-6.99,4.66h0Zm-9.34-16.11c1.2-1.42,2.84-2.41,4.65-2.82,1.69-.43,3.48-.24,5.03.54,1.59.87,2.77,2.33,3.27,4.07l-14.59,3.33c-.22-1.86.38-3.73,1.62-5.13h0Z"/><path id="Path_45" class="cls-3" d="m384.88,67.34c-1.95.47-3.99.3-5.83-.49-1.76-.68-3.16-2.06-3.86-3.81l19.27-4.4c2.73-.62,4.44-3.34,3.82-6.07h0c-.77-4.39-3.49-8.17-7.39-10.31-3.87-2.04-8.36-2.57-12.6-1.49-4.43.95-8.32,3.59-10.84,7.36-2.68,4.02-3.48,9-2.18,13.66.85,4.74,3.7,8.9,7.81,11.41,4.11,2.38,8.99,3.03,13.58,1.82,4.94-1.08,9.25-4.08,11.98-8.34l-6.02-4.13c-.24-.17-.58-.11-.75.14,0,0,0,0,0,0-1.62,2.42-4.14,4.1-7,4.65h0Zm-9.34-16.1c1.2-1.42,2.84-2.41,4.65-2.82,1.69-.43,3.48-.24,5.03.54,1.59.87,2.77,2.33,3.27,4.07l-14.59,3.33c-.22-1.87.38-3.74,1.63-5.13h0Z"/><path id="Path_46" class="cls-3" d="m358.95,55.8c-1.71-1.93-4.02-3.24-6.56-3.72.76-.34,1.29-.58,1.58-.73.56-.33,1.09-.7,1.58-1.11,2.33-1.87,3.58-4.77,3.36-7.75,0-2.86-1.06-5.63-2.98-7.75-1.36-1.38-3.05-2.39-4.91-2.92-2.51-.77-5.14-1.13-7.76-1.08h-16.56c-.38,0-.68.31-.68.68v43.7h19.4c6.09,0,10.35-1.38,12.81-4.13,2.06-2.23,3.19-5.16,3.17-8.19.08-2.56-.79-5.05-2.44-7.01h0Zm-23.04-16.67h4.76c2.11-.14,4.23.19,6.2.95,1.33.83,2.05,2.36,1.84,3.91.22,1.57-.58,3.11-2,3.84-1.96.69-4.04,1-6.12.89h-4.69v-9.59Zm13.16,26.58c-2.02.81-4.19,1.17-6.37,1.05h-6.78v-10.22h5.83c2.44-.13,4.88.2,7.2.98,1.55.73,2.46,2.37,2.26,4.07.2,1.68-.64,3.31-2.12,4.13h0Z"/><path id="Path_47" class="cls-3" d="m319.14,73.17c-1.15.82-2.44,1.4-3.81,1.72-1.55.38-3.15.57-4.75.56-3.64.23-7.23-.95-10.01-3.3-2.51-2.59-3.8-6.12-3.54-9.71v-14.9h-3.08v-8.09h3.08v-8.54c0-.16.13-.28.28-.28h9.93c.16,0,.28.13.28.28h0v8.54h9.04v8.09h-9.02v14.77c-.08,1.29.34,2.56,1.18,3.54.89.87,2.1,1.32,3.34,1.25,1.53.04,3.03-.43,4.25-1.35l2.84,7.42Z"/><path id="Path_48" class="cls-3" d="m278.58,32.05c-2.31-2.15-2.44-5.76-.29-8.07.09-.1.19-.2.29-.29,1.29-1.16,2.99-1.76,4.72-1.69,1.72-.07,3.41.5,4.72,1.62,1.18,1.01,1.85,2.49,1.82,4.05.05,1.64-.62,3.23-1.82,4.35-1.28,1.17-2.98,1.79-4.72,1.72-1.73.08-3.43-.53-4.72-1.68h0Zm-.24,6.74h9.93c.16,0,.28.13.28.28v35.99h-10.52v-35.98c0-.16.13-.28.28-.28h.03Z"/><path id="Path_49" class="cls-3" d="m270.62,25.49v49.58h-10.05v-4.17c-2.64,3.21-6.65,4.97-10.8,4.72-3.16.04-6.27-.73-9.04-2.24-2.68-1.48-4.88-3.69-6.35-6.38-3.07-6.03-3.07-13.17,0-19.2,1.46-2.69,3.66-4.9,6.35-6.38,2.77-1.51,5.89-2.28,9.04-2.24,3.9-.28,7.7,1.25,10.32,4.14v-17.84c0-.25.2-.45.45-.45h9.61c.25,0,.46.2.46.45h0s0,0,0,0Zm-13.14,39.41c3.47-4.26,3.47-10.37,0-14.64-3.62-3.63-9.49-3.64-13.13-.03,0,0-.02.02-.03.03-1.8,2-2.74,4.64-2.6,7.33-.06,2.65.95,5.22,2.82,7.1,1.6,1.86,3.94,2.94,6.39,2.95,2.47.06,4.85-.93,6.54-2.73h0Z"/><path id="Path_50" class="cls-3" d="m215.22,67.5c-1.95.47-3.99.3-5.83-.49-1.76-.68-3.16-2.06-3.86-3.81l19.27-4.4c2.73-.62,4.45-3.34,3.83-6.07,0,0,0,0,0-.01-.78-4.37-3.49-8.16-7.39-10.3-3.87-2.04-8.36-2.57-12.6-1.49-4.43.95-8.32,3.59-10.84,7.36-2.68,4.02-3.48,9-2.18,13.65.85,4.74,3.69,8.9,7.81,11.41,4.11,2.38,8.99,3.03,13.58,1.82,4.94-1.08,9.25-4.08,11.98-8.34l-6.02-4.13c-.24-.17-.58-.1-.74.14,0,0,0,0,0,0-1.62,2.42-4.14,4.1-7,4.66h0Zm-9.34-16.11c1.2-1.42,2.84-2.41,4.65-2.82,1.69-.43,3.48-.24,5.03.54,1.59.87,2.77,2.33,3.27,4.07l-14.59,3.33c-.22-1.86.38-3.73,1.63-5.13h0Z"/><g id="_Group_"><path id="Path_51" class="cls-3" d="m192,49.51l.03-.17c1-2.81,2.76-5.29,5.08-7.17-3.28-2.08-7.46-2.12-10.77-.09-1.74.89-3.29,2.1-4.6,3.56v-4.03c0-.26-.21-.48-.48-.48h-8.88c-.29,0-.52.23-.52.52h0v33.65h9.87v-14.8c-.14-2.81.59-5.59,2.09-7.97,1.45-2.04,3.84-3.18,6.34-3.02h1.84Z"/></g><g id="_Group_2"><path id="Path_52" class="cls-3" d="m168.39,31.1h-10.74c-.23,0-.44.11-.56.3-1.51,2.33-11.43,17.42-15.89,18.18-.15.03-.3-.07-.33-.22,0-.02,0-.04,0-.06v-17.54c0-.36-.3-.66-.66-.66h-8.55c-.36,0-.66.3-.66.66h0v43.65h9.87v-16.92c0-.26.21-.47.47-.47.02,0,.04,0,.06,0,5.03.9,9.63,3.43,13.09,7.19,2.74,2.66,4.19,6.38,3.95,10.19h9.87c-.28-9.25-5.55-17.63-13.77-21.89-2.48-1.34-2.29-1.39-.44-3.56,9.64-11.28,13.39-15.97,14.79-17.8.22-.29.16-.7-.13-.92-.11-.09-.25-.13-.4-.13h.03Z"/></g><g id="Group_1"><path id="Path_53" class="cls-1" d="m74.15,45.69l-7.42,1.45c-1.2.23-2.37-.55-2.6-1.75-.12-.64.04-1.3.45-1.81l5.19-6.48c.52-.65.94-1.37,1.25-2.14,1.73-4.34-.38-9.26-4.72-10.99-.04-.02-.08-.03-.12-.05-4.36-1.61-9.2.57-10.9,4.89l-9.59,23.97c-.15.38-.26.77-.31,1.18-.37,2.74,1.54,5.26,4.28,5.64h.09l24.9,3.42c.96.13,1.93.1,2.88-.08,4.76-.93,7.87-5.55,6.93-10.32-.93-4.76-5.55-7.87-10.32-6.93h0v.02Z"/><path id="Path_54" class="cls-3" d="m20.59,22.86c2.04-1.18,2.74-3.78,1.56-5.82-1.18-2.04-3.78-2.74-5.82-1.56-2.04,1.18-2.74,3.78-1.56,5.82,1.18,2.04,3.78,2.74,5.82,1.56Z"/><path id="Path_55" class="cls-3" d="m6.39,31.07c2.04-1.18,2.74-3.78,1.56-5.82-1.18-2.04-3.78-2.74-5.82-1.56-2.04,1.18-2.74,3.78-1.56,5.82,1.18,2.04,3.78,2.74,5.82,1.56Z"/><path id="Path_56" class="cls-3" d="m88.38,12.81C81.37.69,65.93-3.57,53.7,3.25l-.33.19c-.78.45-1.53.93-2.26,1.46l-.05.04c-8.3,5.75-14.29,14.26-16.89,24.02-.16.61-.31,1.22-.45,1.83-.21.91-1.12,1.48-2.03,1.27-.14-.03-.27-.08-.39-.14-3.38-1.73-6.93-3.1-10.6-4.08-1.3-.35-2.61-.65-3.92-.89-2.04-.38-4.05.78-4.74,2.74-.44,1.27-.84,2.55-1.18,3.85-3.69,13.7-1.76,28.3,5.36,40.58l.06.11.15.26.17.28c7.83,13.17,20.96,22.34,36.02,25.16,2.04.38,4.05-.78,4.74-2.74.44-1.27.84-2.55,1.18-3.85.97-3.64,1.56-7.36,1.76-11.12.05-.93.84-1.65,1.78-1.6.14,0,.28.03.42.07,9.05,2.88,18.81,2.66,27.72-.64,2.02-.58,3.97-1.4,5.79-2.46,1-.58,1.97-1.23,2.88-1.93,11.19-8.67,13.24-24.77,4.56-35.96-3.11-4.02-7.35-7.02-12.18-8.63,1.34-6.22.31-12.73-2.89-18.23h0Zm-3.91,39.81c.93,4.76-2.17,9.38-6.94,10.31,0,0,0,0,0,0-.95.18-1.92.21-2.88.08l-24.9-3.42h-.09c-2.74-.38-4.65-2.9-4.28-5.64.06-.4.16-.8.31-1.18l9.59-23.97c1.7-4.32,6.54-6.49,10.9-4.89,4.36,1.67,6.55,6.55,4.89,10.92-.01.04-.03.08-.05.12-.31.77-.73,1.49-1.25,2.14l-5.19,6.48c-.77.96-.61,2.35.35,3.12.51.41,1.17.57,1.81.45l7.42-1.45c4.76-.93,9.37,2.17,10.31,6.92h0Z"/></g></svg>